<svg xmlns="http://www.w3.org/2000/svg" width="302" height="233" viewBox="0 0 302 233">
  <g id="Group_1260" data-name="Group 1260" transform="translate(2341 1105)">
    <rect id="Rectangle_683" data-name="Rectangle 683" width="302" height="233" transform="translate(-2341 -1105)" fill="none"/>
    <g id="Group_1171" data-name="Group 1171" transform="translate(-96.85 548.837)">
      <g id="Group_829" data-name="Group 829" transform="translate(-2226.975 -1643.168)">
        <rect id="Rectangle_62" data-name="Rectangle 62" width="164.128" height="77.882" transform="translate(96.96 63.602)" fill="#e6e6e6"/>
        <rect id="Rectangle_75" data-name="Rectangle 75" width="154.742" height="64.979" transform="translate(101.653 70.281)" fill="#fff"/>
        <rect id="Rectangle_80" data-name="Rectangle 80" width="164.128" height="6.973" transform="translate(96.89 59.102)" fill="#faf076"/>
        <circle id="Ellipse_90" data-name="Ellipse 90" cx="1.292" cy="1.292" r="1.292" transform="translate(100.779 61.91)" fill="#fff"/>
        <circle id="Ellipse_91" data-name="Ellipse 91" cx="1.292" cy="1.292" r="1.292" transform="translate(105.685 61.91)" fill="#fff"/>
        <circle id="Ellipse_92" data-name="Ellipse 92" cx="1.292" cy="1.292" r="1.292" transform="translate(110.59 61.91)" fill="#fff"/>
        <rect id="Rectangle_377" data-name="Rectangle 377" width="25.727" height="43.951" transform="translate(194.238 80.795)" fill="#f2f2f2"/>
        <rect id="Rectangle_378" data-name="Rectangle 378" width="51.893" height="12.098" transform="translate(138.083 80.794)" fill="#037ee6"/>
        <rect id="Rectangle_379" data-name="Rectangle 379" width="51.893" height="13.017" transform="translate(138.083 96.261)" fill="#f2f2f2"/>
        <rect id="Rectangle_380" data-name="Rectangle 380" width="51.893" height="12.098" transform="translate(138.083 112.647)" fill="#f2f2f2"/>
        <path id="Path_1632" data-name="Path 1632" d="M358.118,448.14a6.325,6.325,0,0,0-7.006-6.323,6.084,6.084,0,0,0-.831.153l-21.4-18.347,1.279-6.894-10.55-3.419-3.181,11.049a6.408,6.408,0,0,0,2.719,7.152l26.331,16.654a6.039,6.039,0,0,0,.032.62,6.325,6.325,0,0,0,7.679,5.488,6.136,6.136,0,0,0,.745-.215A6.344,6.344,0,0,0,358.118,448.14Z" transform="translate(-297.719 -323.393)" fill="#fdc2cc"/>
        <path id="Path_1633" data-name="Path 1633" d="M271.213,571.807h27.6c0,.793,28.442,1.437,28.442,1.437a7.4,7.4,0,0,1,1.213,1.15,7.134,7.134,0,0,1,1.667,4.6v1.15a7.188,7.188,0,0,1-7.186,7.185H271.213a7.191,7.191,0,0,1-7.185-7.185v-1.15A7.2,7.2,0,0,1,271.213,571.807Z" transform="translate(-264.028 -425.782)"/>
        <rect id="Rectangle_381" data-name="Rectangle 381" width="7.473" height="48.285" transform="translate(29.732 161.26)"/>
        <path id="Path_1634" data-name="Path 1634" d="M336.9,738.206c0,.9-11.324.35-25.292.35s-25.292.554-25.292-.35,11.324-8.073,25.292-8.073S336.9,737.3,336.9,738.206Z" transform="translate(-278.423 -528.062)"/>
        <path id="Path_1635" data-name="Path 1635" d="M196.7,556.56h7.047l3.353-18.278H196.7Z" transform="translate(-144.977 -352.938)" fill="#fdc2cc"/>
        <path id="Path_1636" data-name="Path 1636" d="M405.071,737.145h22.723v-.287a8.844,8.844,0,0,0-8.844-8.844H405.071Z" transform="translate(-355.142 -526.691)"/>
        <path id="Path_1637" data-name="Path 1637" d="M348.726,583.851l14.049-31.5a11.546,11.546,0,0,0-5.069-14.821l-30.473-16.341L313.327,520,300.5,518.836l-.092.157a12.983,12.983,0,0,0-1.012,10.187c1.414,3.962,5.092,7.057,10.932,9.2,13.632,5,29.379,9.27,35.516,10.875a1.984,1.984,0,0,1,1.271,1.011,2.011,2.011,0,0,1,.113,1.609L334.176,581.2a2.587,2.587,0,0,0,2.19,3.466l9.753.71q.124.012.247.012A2.585,2.585,0,0,0,348.726,583.851Z" transform="translate(-286.458 -391.563)" fill="#6c63ff"/>
        <path id="Path_1638" data-name="Path 1638" d="M183.714,556.56h7.047l3.353-18.278h-10.4Z" transform="translate(-136.586 -352.938)" fill="#fdc2cc"/>
        <path id="Path_1639" data-name="Path 1639" d="M392.081,737.145H414.8v-.287a8.844,8.844,0,0,0-8.844-8.844H392.081Z" transform="translate(-346.75 -526.691)"/>
        <path id="Path_1640" data-name="Path 1640" d="M339.357,589.008l14.049-31.5a11.546,11.546,0,0,0-5.069-14.821l-30.473-16.341-13.906-1.183-10.047-.871v-.138a12.983,12.983,0,0,0-1.012,10.187c1.414,3.962,2.218,7.057,8.058,9.2,13.631,5,29.379,9.27,35.516,10.874a1.984,1.984,0,0,1,1.271,1.012,2.011,2.011,0,0,1,.113,1.609l-13.052,29.324a2.587,2.587,0,0,0,2.19,3.466l9.753.71q.124.012.247.012A2.585,2.585,0,0,0,339.357,589.008Z" transform="translate(-282.263 -394.995)" fill="#037ee6"/>
        <path id="Path_1641" data-name="Path 1641" d="M302.865,437.538c.674-.476,10.347,4.6,12.071.575-8.048-20.119-2.5-28.806-7.431-40.343a14.366,14.366,0,0,0-9.523-8.151l-12.79-.646-.066.032a14.948,14.948,0,0,0-8.174,15.858C277,417.42,284.51,427,281.883,436.1a2.944,2.944,0,0,0,.278,2.29,2.807,2.807,0,0,0,1.791,1.327l16.887-2.253a2.854,2.854,0,0,0,2.309-.447Z" transform="translate(-272.247 -307.671)"/>
        <circle id="Ellipse_126" data-name="Ellipse 126" cx="14.118" cy="14.118" r="14.118" transform="translate(3.095 48.288)" fill="#fdc2cc"/>
        <path id="Path_1642" data-name="Path 1642" d="M276.762,314.837c.75.328,2.286-5.649,1.6-6.844-1.023-1.778-.963-1.765-1.642-2.941a3.41,3.41,0,0,1,.048-3.821c.88-1.035,2.915-.9,3.317.4-.258-2.465,2.18-4.446,4.595-5s4.962-.211,7.39-.707c2.818-.575,5.75-2.937,4.626-6.036a4.366,4.366,0,0,0-.851-1.4,10.767,10.767,0,0,0-4.893-2.687c-3.7-1.255-7.493-2.525-11.394-2.386a16.553,16.553,0,0,0-14.627,10.7,15.039,15.039,0,0,0-.623,2.314,15.517,15.517,0,0,0,9.632,17.042Z" transform="translate(-264.046 -239.472)"/>
        <path id="Path_1643" data-name="Path 1643" d="M485.746,435.437l1.619,9.613a.593.593,0,0,1-.034.318l-12.7,31.737a.592.592,0,0,1-1.141-.195l-.538-12.754a.591.591,0,0,1,.043-.248l11.621-28.6a.592.592,0,0,1,1.132.124Z" transform="translate(-398.992 -337.368)" fill="#3f3d56"/>
        <path id="Path_1644" data-name="Path 1644" d="M272.682,293.823l1.538,8.259-11.272,28.961-1.463-9.316Z" transform="translate(-186.827 -195.016)" fill="#fff"/>
        <path id="Path_1645" data-name="Path 1645" d="M367.231,524.172c.277,1.083,36.688,2.255,37.066,1.927a7.673,7.673,0,0,0,.876-1.355c.382-.682.735-1.365.735-1.365l-.6-11.515-35.868-3.833s-1.587,9.61-2.085,14.024A10.614,10.614,0,0,0,367.231,524.172Z" transform="translate(-330.691 -384.583)" fill="#3f3d56"/>
        <path id="Path_1646" data-name="Path 1646" d="M219.17,375.735l0,9.921-15.864-1.128.7-9.871Z" transform="translate(-149.245 -247.236)" opacity="0.1"/>
        <path id="Path_1647" data-name="Path 1647" d="M172.442,381.368l.1-.012-.749,4.218-8.813-.627.3-4.231Z" transform="translate(-123.189 -251.15)" opacity="0.1"/>
        <path id="Path_1648" data-name="Path 1648" d="M367.231,549.765c.277,1.083,36.688,2.254,37.066,1.927a7.677,7.677,0,0,0,.876-1.355l-37.816-2.689A10.6,10.6,0,0,0,367.231,549.765Z" transform="translate(-330.691 -410.175)" opacity="0.1"/>
        <path id="Path_1649" data-name="Path 1649" d="M314.586,472.581l30.714,5.732a6.046,6.046,0,0,0,.26.564,6.339,6.339,0,0,0,4.068,3.176,6.323,6.323,0,1,0-1.443-11.725,6.083,6.083,0,0,0-.715.45l-26.678-9.113-1.365-6.878-11.066.732,1.147,11.53a6.29,6.29,0,0,0,5.078,5.531Z" transform="translate(-292.667 -350.188)" fill="#fdc2cc"/>
        <path id="Path_1650" data-name="Path 1650" d="M307.022,434.223l16.079-5.285-3.751-10.77a6.42,6.42,0,0,0-7.118-4.221h0a6.42,6.42,0,0,0-5.364,6.4Z" transform="translate(-291.702 -323.748)"/>
        <path id="Path_1655" data-name="Path 1655" d="M388.732,154.07a26.084,26.084,0,0,0-48.767-6.967,20.875,20.875,0,0,0,2.265,41.63h45.283a17.469,17.469,0,0,0,17.417-17.417A17.2,17.2,0,0,0,388.732,154.07ZM368.7,164.342v13.237H357.555V164.342H345.712l17.417-17.408,17.417,17.417Z" transform="translate(-136.745 -133)" fill="#037ee6"/>
        <g id="Group_827" data-name="Group 827" transform="translate(179.024 168.778)">
          <rect id="Rectangle_301" data-name="Rectangle 301" width="9.972" height="9.972" transform="matrix(0.978, -0.21, 0.21, 0.978, 8.933, 6.817)"/>
          <path id="Path_1282" data-name="Path 1282" d="M231.461,276.51,234,288.348l-11.838,2.544-2.544-11.838Zm1.918,11.434-2.323-10.809-10.809,2.323,2.322,10.809Z" transform="translate(-219.623 -276.51)"/>
        </g>
        <g id="Group_828" data-name="Group 828" transform="translate(68.054 19.857)">
          <rect id="Rectangle_301-2" data-name="Rectangle 301" width="14.49" height="14.49" transform="matrix(0.978, -0.21, 0.21, 0.978, 12.981, 9.906)" fill="#037ee6"/>
          <path id="Path_1282-2" data-name="Path 1282" d="M236.825,276.51l3.7,17.2-17.2,3.7-3.7-17.2Zm2.788,16.615-3.375-15.707-15.707,3.375,3.375,15.707Z" transform="translate(-219.623 -276.51)" fill="#037ee6"/>
        </g>
      </g>
    </g>
  </g>
</svg>
