<svg xmlns="http://www.w3.org/2000/svg" width="302" height="233" viewBox="0 0 302 233">
  <g id="Group_1262" data-name="Group 1262" transform="translate(2500 705)">
    <rect id="Rectangle_684" data-name="Rectangle 684" width="302" height="233" transform="translate(-2500 -705)" fill="none"/>
    <g id="Group_1261" data-name="Group 1261" transform="translate(-1234.804 1471.649)">
      <g id="Group_1211" data-name="Group 1211" transform="translate(19.711 -2.18)">
        <g id="Group_1210" data-name="Group 1210" transform="translate(-1389 -2150.35)">
          <path id="Path_2053" data-name="Path 2053" d="M665.142,412.839H413.964a4.021,4.021,0,0,0,0,8.043h7.115v96.2a4.021,4.021,0,0,0,8.043,0l.061-96.2h201.6l18.588,96.2a4.021,4.021,0,1,0,8.043,0l1.17-96.2h6.563a4.021,4.021,0,1,0,0-8.043Z" transform="translate(-278.969 -336.225)" fill="#ccc"/>
          <path id="Path_2054" data-name="Path 2054" d="M452.454,371.843v17.029H409.79a8.52,8.52,0,1,1-.592-17.029q.3-.01.592,0Z" transform="translate(-273.921 -313.148)" fill="#f2f2f2"/>
          <path id="Path_2055" data-name="Path 2055" d="M452.322,388.243a.655.655,0,0,1-.655.655H407.85a8.973,8.973,0,0,1,0-17.946h43.817a.655.655,0,1,1,0,1.31H407.85a7.663,7.663,0,1,0,0,15.326h43.817A.655.655,0,0,1,452.322,388.243Z" transform="translate(-272.74 -312.649)" fill="#238ee9"/>
          <path id="Path_2056" data-name="Path 2056" d="M459.537,380.5H413.689a.131.131,0,0,1,0-.262h45.85a.131.131,0,0,1,0,.262Z" transform="translate(-281.003 -317.877)" fill="#ccc"/>
          <path id="Path_2057" data-name="Path 2057" d="M459.537,387.695H413.689a.131.131,0,0,1,0-.262h45.85a.131.131,0,0,1,0,.262Z" transform="translate(-281.003 -321.925)" fill="#ccc"/>
          <path id="Path_2058" data-name="Path 2058" d="M459.537,394.886H413.689a.131.131,0,1,1,0-.262h45.85a.131.131,0,0,1,0,.262Z" transform="translate(-281.003 -325.972)" fill="#ccc"/>
          <path id="Path_2059" data-name="Path 2059" d="M459.537,402.078H413.689a.131.131,0,1,1,0-.262h45.85a.131.131,0,0,1,0,.262Z" transform="translate(-281.003 -330.02)" fill="#ccc"/>
          <path id="Path_2060" data-name="Path 2060" d="M434.056,330.8v17.029H391.392A8.52,8.52,0,1,1,390.8,330.8q.3-.01.592,0Z" transform="translate(-263.566 -290.048)" fill="#f2f2f2"/>
          <path id="Path_2061" data-name="Path 2061" d="M433.924,347.2a.655.655,0,0,1-.655.655H389.452a8.973,8.973,0,0,1,0-17.946h43.817a.655.655,0,0,1,0,1.31H389.452a7.663,7.663,0,0,0,0,15.326h43.817a.655.655,0,0,1,.655.655Z" transform="translate(-262.385 -289.549)" fill="#3f3d56"/>
          <path id="Path_2062" data-name="Path 2062" d="M441.139,339.462H395.291a.131.131,0,1,1,0-.262h45.85a.131.131,0,0,1,0,.262Z" transform="translate(-270.648 -294.777)" fill="#ccc"/>
          <path id="Path_2063" data-name="Path 2063" d="M441.139,346.654H395.291a.131.131,0,0,1,0-.262h45.85a.131.131,0,0,1,0,.262Z" transform="translate(-270.648 -298.825)" fill="#ccc"/>
          <path id="Path_2064" data-name="Path 2064" d="M441.139,353.845H395.291a.131.131,0,0,1,0-.262h45.85a.131.131,0,0,1,0,.262Z" transform="translate(-270.648 -302.873)" fill="#ccc"/>
          <path id="Path_2065" data-name="Path 2065" d="M441.139,361.037H395.291a.131.131,0,0,1,0-.262h45.85a.131.131,0,0,1,0,.262Z" transform="translate(-270.648 -306.921)" fill="#ccc"/>
          <path id="Path_2066" data-name="Path 2066" d="M535.015,528.38V513.532a2.475,2.475,0,0,0-2.475-2.475h-56.3a2.475,2.475,0,0,0-2.475,2.475V528.38Z" transform="translate(-314.892 -391.507)" fill="#faf076"/>
          <rect id="Rectangle_635" data-name="Rectangle 635" width="61.248" height="19.179" transform="translate(158.875 142.441)" fill="#faf076"/>
          <path id="Path_2067" data-name="Path 2067" d="M473.768,620.029v14.848a2.475,2.475,0,0,0,2.475,2.475h56.3a2.475,2.475,0,0,0,2.475-2.475V620.029Z" transform="translate(-314.893 -452.841)" fill="#faf076"/>
          <circle id="Ellipse_139" data-name="Ellipse 139" cx="1.856" cy="1.856" r="1.856" transform="translate(187.334 126.975)" fill="#fff"/>
          <circle id="Ellipse_140" data-name="Ellipse 140" cx="1.856" cy="1.856" r="1.856" transform="translate(187.334 151.721)" fill="#fff"/>
          <circle id="Ellipse_141" data-name="Ellipse 141" cx="1.856" cy="1.856" r="1.856" transform="translate(187.433 175.944)" fill="#fff"/>
          <path id="Path_2068" data-name="Path 2068" d="M531.706,472.324v17.029H489.042a8.52,8.52,0,1,1-.593-17.029q.3-.01.593,0Z" transform="translate(-318.527 -369.703)" fill="#f2f2f2"/>
          <path id="Path_2069" data-name="Path 2069" d="M531.567,488.723a.655.655,0,0,1-.655.655H487.095a8.973,8.973,0,1,1-.011-17.946h43.828a.655.655,0,0,1,0,1.31H487.095a7.663,7.663,0,0,0,0,15.326h43.817A.655.655,0,0,1,531.567,488.723Z" transform="translate(-317.34 -369.204)" fill="#3f3d56"/>
          <path id="Path_2070" data-name="Path 2070" d="M538.789,480.983H492.941a.131.131,0,1,1,0-.262h45.85a.131.131,0,0,1,0,.262Z" transform="translate(-325.61 -374.432)" fill="#ccc"/>
          <path id="Path_2071" data-name="Path 2071" d="M538.789,488.175H492.941a.131.131,0,1,1,0-.262h45.85a.131.131,0,1,1,0,.262Z" transform="translate(-325.61 -378.48)" fill="#ccc"/>
          <path id="Path_2072" data-name="Path 2072" d="M538.789,495.366H492.941a.131.131,0,1,1,0-.262h45.85a.131.131,0,0,1,0,.262Z" transform="translate(-325.61 -382.527)" fill="#ccc"/>
          <path id="Path_2073" data-name="Path 2073" d="M538.789,502.558H492.941a.131.131,0,1,1,0-.262h45.85a.131.131,0,0,1,0,.262Z" transform="translate(-325.61 -386.575)" fill="#ccc"/>
          <path id="Path_2074" data-name="Path 2074" d="M450.638,317.812H431.2a1.2,1.2,0,0,0-.532.124l-4.906,2.456a.894.894,0,0,0,0,1.646l4.906,2.456a1.2,1.2,0,0,0,.532.124h19.438a1.02,1.02,0,0,0,1.077-.947v-4.912A1.02,1.02,0,0,0,450.638,317.812Z" transform="translate(-287.566 -282.738)" fill="#238ee9"/>
          <path id="Path_2075" data-name="Path 2075" d="M479.458,318.758v4.912a1.02,1.02,0,0,1-1.077.947h-3.873v-6.805h3.873a1.02,1.02,0,0,1,1.077.946Z" transform="translate(-315.309 -282.738)" fill="#238ee9"/>
          <path id="Path_2081" data-name="Path 2081" d="M701.738,397.6l-2.052-.864-1.408-10.289H679.529L678,396.689l-1.836.918a.436.436,0,0,0,.2.826h25.207a.436.436,0,0,0,.169-.838Z" transform="translate(-428.676 -321.368)" fill="#e6e6e6"/>
          <path id="Path_2082" data-name="Path 2082" d="M690.264,370.5h-92.1a1.825,1.825,0,0,1-1.821-1.825V355.691h95.742v12.987a1.825,1.825,0,0,1-1.82,1.825Z" transform="translate(-383.883 -304.059)" fill="#faf076"/>
          <path id="Path_2083" data-name="Path 2083" d="M692.072,295.351H596.15v-55.57a2.2,2.2,0,0,1,2.2-2.2h91.523a2.2,2.2,0,0,1,2.2,2.2Z" transform="translate(-383.775 -237.582)"/>
          <path id="Path_2084" data-name="Path 2084" d="M691.536,296.511H607.072a1.7,1.7,0,0,1-1.7-1.7V248.5a1.7,1.7,0,0,1,1.7-1.7h84.464a1.7,1.7,0,0,1,1.7,1.7v46.312A1.7,1.7,0,0,1,691.536,296.511Z" transform="translate(-388.968 -242.775)" fill="#fff"/>
          <path id="Path_2085" data-name="Path 2085" d="M749.435,396.152a5.078,5.078,0,0,1,7.723.993l11.425-2.031,2.928,6.642L755.336,404.4a5.105,5.105,0,0,1-5.9-8.246Z" transform="translate(-469.113 -326.074)" fill="#ffb6b6"/>
          <path id="Path_2086" data-name="Path 2086" d="M775.776,373.871l11.911-.148,1.508-.02,24.232-.305s6.581-6.278,12.311-12.742l-.8-5.809a23.734,23.734,0,0,0-7.958-14.695c-8.207,5.484-12.966,16.338-12.966,16.338l-15.025,3.594-1.5.359-9.336,2.231Z" transform="translate(-484.877 -295.313)" fill="#037ee6"/>
          <path id="Path_2087" data-name="Path 2087" d="M850.881,498.962H828.649c0,.953-24.3,1.726-24.3,1.726a8.878,8.878,0,0,0-1.456,1.381,8.567,8.567,0,0,0-2,5.522v1.381a8.632,8.632,0,0,0,8.629,8.629h41.366a8.636,8.636,0,0,0,8.629-8.629v-1.381A8.641,8.641,0,0,0,850.881,498.962Z" transform="translate(-499.011 -384.699)" fill="#e4e4e4"/>
          <rect id="Rectangle_636" data-name="Rectangle 636" width="8.974" height="51.798" transform="translate(326.729 132.558)" fill="#e4e4e4"/>
          <path id="Path_2088" data-name="Path 2088" d="M799.312,647.433c0,.97,13.6.375,30.373.375s30.373.595,30.373-.375-13.6-8.659-30.373-8.659S799.312,646.463,799.312,647.433Z" transform="translate(-498.124 -463.392)" fill="#e4e4e4"/>
          <path id="Path_2089" data-name="Path 2089" d="M662.5,374.292h-6.679l-3.177-25.761H662.5Z" transform="translate(-367.336 -196.17)" fill="#ffb6b6"/>
          <path id="Path_2090" data-name="Path 2090" d="M761.692,648.708H740.157v-.272a8.382,8.382,0,0,1,8.382-8.382h13.154Z" transform="translate(-464.829 -464.112)"/>
          <path id="Path_2091" data-name="Path 2091" d="M617.341,374.292h-6.679l-3.177-25.761h9.857Z" transform="translate(-341.921 -196.17)" fill="#ffb6b6"/>
          <path id="Path_2092" data-name="Path 2092" d="M716.537,648.708H695v-.272a8.382,8.382,0,0,1,8.382-8.382h13.154Z" transform="translate(-439.413 -464.112)"/>
          <circle id="Ellipse_142" data-name="Ellipse 142" cx="11.613" cy="11.613" r="11.613" transform="translate(323.635 6.589)" fill="#ffb6b6"/>
          <path id="Path_2093" data-name="Path 2093" d="M830.508,456.481s3.9,20.6-10.929,23.227-36.225,4.468-36.225,4.468l-9.61,44.837-12.911-1.153s1.717-53.974,5.94-58.2S797.684,452.8,797.684,452.8Z" transform="translate(-476.466 -358.715)"/>
          <path id="Path_2094" data-name="Path 2094" d="M775.374,441.471l-6.484,6.5s-46.817,7.541-48.623,18.354c-2.727,16.325-5.947,51.825-5.947,51.825L728.4,517.1l5.52-40.354,22.521-5.123,25.623-13.964Z" transform="translate(-450.287 -352.34)"/>
          <path id="Path_2095" data-name="Path 2095" d="M872.1,252.589c-1.146-2.163-2.6-6.473-4.917-7.273a18.4,18.4,0,0,0-3.96-.844l-3.933,1.513,2.14-1.665q-.625-.037-1.249-.061l-2.654,1.021,1.358-1.056c-2.474-.025-5.027.232-6.944,1.738-1.634,1.284-3.253,6.147-3.515,8.209a15.7,15.7,0,0,0,.289,5.915l.672.639a8.244,8.244,0,0,0,.527-1.678,7.948,7.948,0,0,1,3.8-5.161l.037-.021a7.131,7.131,0,0,1,3.787-.559l6.138.221a5.226,5.226,0,0,1,5.905,3.516,51.722,51.722,0,0,1,1.69,5.51s.633-.822.936-.21a21.155,21.155,0,0,0,.881-4.911A9.62,9.62,0,0,0,872.1,252.589Z" transform="translate(-525.683 -241.32)" fill="#2f2e41"/>
          <path id="Path_2096" data-name="Path 2096" d="M977.754,290.866a5.078,5.078,0,0,0-4.6,6.285l-9.338,6.888,2.8,6.7,13.051-9.913a5.105,5.105,0,0,0-1.919-9.957Z" transform="translate(-590.717 -267.565)" fill="#ffb6b6"/>
          <path id="Path_2097" data-name="Path 2097" d="M930.04,313.977l-23.41,26s-11.2-3.584-19.853-7.469l-3.89-11.947a23.757,23.757,0,0,1-1.137-8.6c12-3.194,25.963,8.69,25.963,8.69l17.523-13.726Z" transform="translate(-544.506 -276.613)" fill="#037ee6"/>
          <path id="Path_2098" data-name="Path 2098" d="M850.108,380.8a63.381,63.381,0,0,0-13.154-3.495l-.2-.024.055-.194c4.822-16.931,3.619-27.762,1.255-44.031a16.433,16.433,0,0,1,9.42-17.268l.029-.013,13.3-.845.03,0,9.676,2.846a6.637,6.637,0,0,1,4.751,6.483c-.1,5.351.118,11.324.353,17.648.528,14.188,1.074,28.859-2.024,38.378l-.016.05-.041.032a15.781,15.781,0,0,1-10.09,3.544C859.113,383.915,854.681,382.384,850.108,380.8Z" transform="translate(-519.198 -281.119)" fill="#037ee6"/>
        </g>
        <g id="Group_1203" data-name="Group 1203" transform="translate(-1462.7 -2288.084)">
          <g id="Group_1172" data-name="Group 1172" transform="translate(327.127 176.905)">
            <path id="Path_1915" data-name="Path 1915" d="M442.147,351.631a2.552,2.552,0,0,1,.354-.241c.236-.15.587-.367,1.038-.643.9-.552,2.208-1.34,3.812-2.3l.039-.024.043.018,4.359,1.826.052.022.013.055,1.447,5.979h0l.021.086-.076.045-5.252,3.1-.049.029-.052-.022L443.55,357.7l-.043-.019-.011-.045c-.431-1.84-.778-3.339-1.011-4.379-.117-.52-.206-.925-.263-1.2a2.581,2.581,0,0,1-.074-.424,2.6,2.6,0,0,1,.127.411c.074.272.179.673.311,1.189.265,1.032.638,2.525,1.09,4.359l-.053-.063,4.363,1.827-.1.007,5.244-3.111-.056.131h0l-1.431-5.983.065.077-4.343-1.863.083-.006c-1.615.942-2.935,1.706-3.854,2.231-.459.262-.818.465-1.063.6A2.566,2.566,0,0,1,442.147,351.631Z" transform="translate(-442.146 -348.424)" fill="#208be5"/>
            <path id="Path_1916" data-name="Path 1916" d="M447.95,377.091a10.467,10.467,0,0,1-.456-1.529c-.252-.952-.584-2.271-.936-3.731l-.166-.694.069.082c-1.228-.525-2.31-1-3.082-1.35a8.319,8.319,0,0,1-1.222-.6,8.285,8.285,0,0,1,1.284.458c.789.311,1.882.759,3.113,1.277l.055.023.014.059.168.694c.352,1.46.658,2.785.868,3.747A10.48,10.48,0,0,1,447.95,377.091Z" transform="translate(-442.154 -366.056)" fill="#208be5"/>
            <path id="Path_1917" data-name="Path 1917" d="M470.447,364.173a38.762,38.762,0,0,1,5.252-3.1,38.783,38.783,0,0,1-5.252,3.1Z" transform="translate(-466.094 -359.121)" fill="#208be5"/>
          </g>
          <g id="Group_1179" data-name="Group 1179" transform="translate(319.927 145.734)" opacity="0.87">
            <g id="Group_1177" data-name="Group 1177" transform="translate(0 0)">
              <g id="Group_1176" data-name="Group 1176" style="isolation: isolate">
                <g id="Group_1173" data-name="Group 1173" transform="translate(4.482 1.824)">
                  <path id="Path_1918" data-name="Path 1918" d="M429.816,157.594l1.549,6.045-5.342,3.2-1.549-6.045Z" transform="translate(-424.473 -157.594)" fill="#037ee6"/>
                </g>
                <g id="Group_1174" data-name="Group 1174" transform="translate(0 3.199)">
                  <path id="Path_1919" data-name="Path 1919" d="M401.363,174.407l-4.482-1.824-1.549-6.045,4.482,1.824Z" transform="translate(-395.332 -166.537)" fill="#037ee6"/>
                </g>
                <g id="Group_1175" data-name="Group 1175">
                  <path id="Path_1920" data-name="Path 1920" d="M399.813,150.757l-4.482-1.824,5.342-3.2,4.482,1.824Z" transform="translate(-395.332 -145.734)" fill="#037ee6"/>
                </g>
              </g>
            </g>
            <g id="Group_1178" data-name="Group 1178" transform="translate(0 0)">
              <path id="Path_1921" data-name="Path 1921" d="M405.156,147.558l-4.482-1.824-5.342,3.2,1.549,6.045,4.486,1.824,5.338-3.2Z" transform="translate(-395.332 -145.734)" fill="#037ee6"/>
            </g>
          </g>
          <path id="Path_1922" data-name="Path 1922" d="M378.553,194.121a6.1,6.1,0,0,1-1.007.681c-.637.394-1.526.924-2.515,1.5s-1.891,1.079-2.551,1.435a6.107,6.107,0,0,1-1.092.534,6.087,6.087,0,0,1,1.006-.681c.637-.394,1.526-.924,2.515-1.5s1.891-1.079,2.55-1.435A6.084,6.084,0,0,1,378.553,194.121Z" transform="translate(-55.143 -40.944)" fill="#208be5"/>
          <circle id="Ellipse_128" data-name="Ellipse 128" cx="2.318" cy="2.318" r="2.318" transform="translate(313.111 174.362)" fill="#cdd7fa" opacity="0.61"/>
          <g id="Group_1186" data-name="Group 1186" transform="translate(311.253 170.418)" opacity="0.87">
            <g id="Group_1184" data-name="Group 1184" transform="translate(0)">
              <g id="Group_1183" data-name="Group 1183" style="isolation: isolate">
                <g id="Group_1180" data-name="Group 1180" transform="translate(4.482 1.824)">
                  <path id="Path_1923" data-name="Path 1923" d="M373.408,318.1l1.549,6.045-5.342,3.2-1.549-6.045Z" transform="translate(-368.066 -318.099)" fill="#037ee6"/>
                </g>
                <g id="Group_1181" data-name="Group 1181" transform="translate(0 3.199)">
                  <path id="Path_1924" data-name="Path 1924" d="M344.954,334.912l-4.482-1.824-1.549-6.045,4.482,1.824Z" transform="translate(-338.923 -327.042)" fill="#037ee6"/>
                </g>
                <g id="Group_1182" data-name="Group 1182">
                  <path id="Path_1925" data-name="Path 1925" d="M343.405,311.263l-4.482-1.824,5.342-3.2,4.482,1.824Z" transform="translate(-338.923 -306.24)" fill="#037ee6"/>
                </g>
              </g>
            </g>
            <g id="Group_1185" data-name="Group 1185" transform="translate(0)">
              <path id="Path_1926" data-name="Path 1926" d="M348.748,308.063l-4.482-1.824-5.342,3.2,1.549,6.045,4.486,1.824,5.338-3.2Z" transform="translate(-338.923 -306.24)" fill="#037ee6"/>
            </g>
          </g>
          <g id="Group_1193" data-name="Group 1193" transform="translate(340.407 169.404)" opacity="0.87">
            <g id="Group_1191" data-name="Group 1191" transform="translate(0 0)">
              <g id="Group_1190" data-name="Group 1190" style="isolation: isolate">
                <g id="Group_1187" data-name="Group 1187" transform="translate(4.482 1.824)">
                  <path id="Path_1927" data-name="Path 1927" d="M562.986,311.505l1.549,6.045-5.342,3.2-1.549-6.045Z" transform="translate(-557.643 -311.505)" fill="#037ee6"/>
                </g>
                <g id="Group_1188" data-name="Group 1188" transform="translate(0 3.199)">
                  <path id="Path_1928" data-name="Path 1928" d="M534.532,328.318l-4.482-1.824-1.549-6.045,4.482,1.824Z" transform="translate(-528.502 -320.449)" fill="#037ee6"/>
                </g>
                <g id="Group_1189" data-name="Group 1189">
                  <path id="Path_1929" data-name="Path 1929" d="M532.983,304.669l-4.482-1.824,5.342-3.2,4.482,1.824Z" transform="translate(-528.502 -299.646)" fill="#037ee6"/>
                </g>
              </g>
            </g>
            <g id="Group_1192" data-name="Group 1192" transform="translate(0 0)">
              <path id="Path_1930" data-name="Path 1930" d="M538.326,301.47l-4.482-1.824-5.342,3.2,1.549,6.045,4.486,1.824,5.338-3.2Z" transform="translate(-528.502 -299.646)" fill="#037ee6"/>
            </g>
          </g>
          <g id="Group_1200" data-name="Group 1200" transform="translate(324.84 162.58)" opacity="0.87">
            <g id="Group_1198" data-name="Group 1198" transform="translate(0 0)">
              <g id="Group_1197" data-name="Group 1197" style="isolation: isolate">
                <g id="Group_1194" data-name="Group 1194" transform="translate(4.482 1.824)">
                  <path id="Path_1931" data-name="Path 1931" d="M461.756,267.133l1.549,6.045-5.342,3.2-1.549-6.045Z" transform="translate(-456.414 -267.133)" fill="#037ee6"/>
                </g>
                <g id="Group_1195" data-name="Group 1195" transform="translate(0 3.199)">
                  <path id="Path_1932" data-name="Path 1932" d="M433.3,283.946l-4.482-1.824-1.549-6.045,4.482,1.824Z" transform="translate(-427.272 -276.076)" fill="#037ee6"/>
                </g>
                <g id="Group_1196" data-name="Group 1196">
                  <path id="Path_1933" data-name="Path 1933" d="M431.754,260.3l-4.482-1.824,5.342-3.2L437.1,257.1Z" transform="translate(-427.272 -255.273)" fill="#037ee6"/>
                </g>
              </g>
            </g>
            <g id="Group_1199" data-name="Group 1199" transform="translate(0 0)">
              <path id="Path_1934" data-name="Path 1934" d="M437.1,257.1l-4.482-1.824-5.342,3.2,1.549,6.045,4.486,1.824,5.338-3.2Z" transform="translate(-427.272 -255.273)" fill="#037ee6"/>
            </g>
          </g>
          <path id="Path_1935" data-name="Path 1935" d="M411.936,302.7a4.819,4.819,0,0,1-.888.612c-.564.351-1.351.822-2.227,1.329s-1.678.955-2.263,1.269a4.819,4.819,0,0,1-.973.465,4.811,4.811,0,0,1,.887-.612c.564-.351,1.351-.822,2.228-1.33s1.677-.955,2.263-1.269A4.812,4.812,0,0,1,411.936,302.7Z" transform="translate(-84.081 -132.826)" fill="#208be5"/>
          <path id="Path_1936" data-name="Path 1936" d="M513.647,349.608a5.188,5.188,0,0,1-.924.633c-.586.364-1.4.853-2.315,1.38s-1.742.993-2.35,1.319a5.188,5.188,0,0,1-1.009.486,5.178,5.178,0,0,1,.923-.633c.586-.364,1.4-.853,2.315-1.38s1.742-.993,2.35-1.319A5.189,5.189,0,0,1,513.647,349.608Z" transform="translate(-169.941 -172.518)" fill="#208be5"/>
          <path id="Path_1937" data-name="Path 1937" d="M446.58,221.388a8.484,8.484,0,0,1-.418-1.375c-.228-.856-.528-2.044-.844-3.358s-.589-2.509-.775-3.375a8.491,8.491,0,0,1-.253-1.414,8.522,8.522,0,0,1,.418,1.375c.228.856.527,2.044.844,3.359s.589,2.508.775,3.375A8.525,8.525,0,0,1,446.58,221.388Z" transform="translate(-116.828 -55.961)" fill="#208be5"/>
          <path id="Path_1938" data-name="Path 1938" d="M356.857,273.026a7.975,7.975,0,0,1-.407-1.331c-.222-.829-.512-1.979-.818-3.252s-.57-2.43-.75-3.269a8.012,8.012,0,0,1-.242-1.37,7.963,7.963,0,0,1,.407,1.331c.222.83.512,1.979.818,3.253s.57,2.429.75,3.269A7.99,7.99,0,0,1,356.857,273.026Z" transform="translate(-40.964 -99.912)" fill="#208be5"/>
          <path id="Path_1939" data-name="Path 1939" d="M550.051,266.718a7.162,7.162,0,0,1-.39-1.26c-.211-.785-.487-1.874-.777-3.08s-.54-2.3-.709-3.1a7.162,7.162,0,0,1-.225-1.3,7.165,7.165,0,0,1,.39,1.259c.211.785.487,1.874.777,3.081s.54,2.3.708,3.1A7.174,7.174,0,0,1,550.051,266.718Z" transform="translate(-204.546 -94.985)" fill="#208be5"/>
          <path id="Path_1940" data-name="Path 1940" d="M399.91,351.034a6.772,6.772,0,0,1-1.194-.463c-.725-.314-1.719-.762-2.811-1.27s-2.075-.981-2.782-1.334A6.761,6.761,0,0,1,392,347.35a6.778,6.778,0,0,1,1.194.462c.725.314,1.719.762,2.812,1.271s2.075.981,2.782,1.334A6.769,6.769,0,0,1,399.91,351.034Z" transform="translate(-72.585 -170.607)" fill="#208be5"/>
          <path id="Path_1941" data-name="Path 1941" d="M486.916,300.8a6.608,6.608,0,0,1-1.2-.41c-.727-.282-1.725-.686-2.822-1.147s-2.085-.89-2.8-1.212a6.608,6.608,0,0,1-1.13-.567,6.586,6.586,0,0,1,1.2.41c.727.282,1.725.686,2.822,1.147s2.084.89,2.795,1.212A6.593,6.593,0,0,1,486.916,300.8Z" transform="translate(-146.182 -128.393)" fill="#208be5"/>
          <g id="Group_1201" data-name="Group 1201" transform="translate(306.224 153.732)">
            <path id="Path_1950" data-name="Path 1950" d="M306.226,200.944a2.562,2.562,0,0,1,.354-.241c.236-.15.587-.367,1.038-.643.9-.552,2.208-1.34,3.812-2.3l.04-.024.043.018,4.359,1.826.052.022.013.055,1.447,5.979h0l.021.086-.076.045-5.252,3.1-.049.029-.052-.022-4.347-1.863-.043-.018-.01-.045c-.431-1.84-.778-3.339-1.012-4.378-.117-.52-.206-.925-.263-1.2a2.6,2.6,0,0,1-.074-.424,2.549,2.549,0,0,1,.127.411c.074.272.179.673.312,1.189.264,1.032.638,2.525,1.09,4.36l-.054-.063,4.363,1.827-.1.007,5.244-3.112-.055.132h0l-1.431-5.983.065.077-4.343-1.863.083-.005c-1.615.942-2.935,1.706-3.854,2.231-.459.262-.818.465-1.063.6A2.589,2.589,0,0,1,306.226,200.944Z" transform="translate(-306.224 -197.737)" fill="#208be5"/>
            <path id="Path_1951" data-name="Path 1951" d="M312.028,226.4a10.515,10.515,0,0,1-.456-1.529c-.252-.952-.584-2.271-.936-3.731l-.167-.694.069.082c-1.228-.525-2.31-1-3.082-1.35a8.321,8.321,0,0,1-1.222-.6,8.262,8.262,0,0,1,1.284.458c.789.311,1.882.759,3.113,1.277l.055.023.014.059.169.694c.352,1.46.658,2.785.867,3.747A10.471,10.471,0,0,1,312.028,226.4Z" transform="translate(-306.232 -215.369)" fill="#208be5"/>
            <path id="Path_1952" data-name="Path 1952" d="M334.525,213.486a38.807,38.807,0,0,1,5.252-3.1,38.76,38.76,0,0,1-5.252,3.1Z" transform="translate(-330.172 -208.434)" fill="#208be5"/>
          </g>
          <g id="Group_1202" data-name="Group 1202" transform="translate(336.793 152.288)">
            <path id="Path_1953" data-name="Path 1953" d="M505,191.555a2.582,2.582,0,0,1,.354-.241c.236-.15.587-.367,1.038-.643.9-.552,2.208-1.34,3.812-2.3l.039-.024.043.018,4.359,1.826.052.022.013.055,1.446,5.979h0l.021.086-.076.045-5.252,3.1-.049.029-.052-.022-4.347-1.863-.043-.018-.01-.045c-.431-1.84-.778-3.339-1.011-4.378-.117-.52-.206-.925-.263-1.2a.216.216,0,1,1,.052-.013c.074.272.179.673.311,1.189.264,1.033.637,2.525,1.09,4.36l-.054-.063,4.363,1.827-.1.007,5.244-3.112-.056.131h0l-1.43-5.983.065.077-4.344-1.863.083-.006c-1.615.942-2.935,1.706-3.853,2.231-.459.262-.818.465-1.063.6A2.559,2.559,0,0,1,505,191.555Z" transform="translate(-505 -188.348)" fill="#208be5"/>
            <path id="Path_1954" data-name="Path 1954" d="M510.8,217.014a10.474,10.474,0,0,1-.456-1.529c-.252-.952-.584-2.271-.936-3.731l-.166-.694.069.082c-1.228-.525-2.31-1-3.082-1.35a8.288,8.288,0,0,1-1.222-.6,8.3,8.3,0,0,1,1.284.458c.789.311,1.882.759,3.113,1.277l.055.023.014.058.168.694c.352,1.46.658,2.785.868,3.747A10.458,10.458,0,0,1,510.8,217.014Z" transform="translate(-505.008 -205.98)" fill="#208be5"/>
            <path id="Path_1955" data-name="Path 1955" d="M533.3,204.1a38.8,38.8,0,0,1,5.252-3.1,38.777,38.777,0,0,1-5.252,3.1Z" transform="translate(-528.947 -199.045)" fill="#208be5"/>
          </g>
        </g>
      </g>
      <g id="Group_1217" data-name="Group 1217" transform="translate(-1200.584 -2152.531)">
        <rect id="Rectangle_301" data-name="Rectangle 301" width="10.495" height="10.495" transform="matrix(0.978, -0.21, 0.21, 0.978, 9.402, 7.175)" fill="#faf076"/>
        <path id="Path_1282" data-name="Path 1282" d="M232.083,276.51l2.677,12.46-12.46,2.677-2.677-12.46Zm2.019,12.034-2.444-11.376-11.376,2.444,2.444,11.376Z" transform="translate(-219.623 -276.51)" fill="#faf076"/>
      </g>
    </g>
  </g>
</svg>
