<?xml version="1.0" encoding="utf-8"?>
<!-- Generator: Adobe Illustrator 26.0.1, SVG Export Plug-In . SVG Version: 6.00 Build 0)  -->
<svg version="1.1" id="Layer_1" xmlns="http://www.w3.org/2000/svg" xmlns:xlink="http://www.w3.org/1999/xlink" x="0px" y="0px"
	 viewBox="0 0 302 233" style="enable-background:new 0 0 302 233;" xml:space="preserve">
<style type="text/css">
	.st0{fill:#007FE9;}
	.st1{fill:#F2EA7D;}
	.st2{opacity:0.1;}
	.st3{opacity:5.000000e-02;}
	.st4{fill:#006FBA;}
	.st5{fill:#FFFFFF;}
	.st6{opacity:0.2;}
	.st7{fill:#FCFAF5;}
	.st8{opacity:0.79;}
	.st9{fill:#383838;}
	.st10{fill:#FEB38C;}
	.st11{fill:#F79A88;}
	.st12{fill:#EC7A65;}
	.st13{fill:#1E274D;}
	.st14{fill:#F5836B;}
	.st15{fill:#3A3A3A;}
	.st16{opacity:0.21;}
	.st17{fill:#7C7C7C;}
	.st18{opacity:0.6;}
	.st19{fill:#FF3040;}
	.st20{fill:#5B5B5B;}
	.st21{fill:#EAEBEC;}
	.st22{fill:#FF9C75;}
	.st23{fill:#E6713E;}
	.st24{fill:#FF8752;}
	.st25{fill:#FF7B4D;}
	.st26{fill:#AAAAAA;}
	.st27{fill:#020F2B;}
	.st28{fill:#E2D776;}
	.st29{fill:#3054F2;}
	.st30{fill:#303030;}
	.st31{fill:#666666;}
	.st32{fill:#000F30;}
</style>
<g>
	<g>
		<g>
			<g>
				<path class="st0" d="M55.4,43c-0.9-1.9-0.5-4.2,0.9-5.7c1.4-1.5,3.8-1.9,5.7-1.1c-0.1-4.2,2.9-7.8,6.3-10.2
					c1.7-1.3,3.7-2.4,5.8-2.6c2.8-0.3,5.6,1,7.7,2.9c2.1,1.9,3.6,4.4,5,6.8c0.9-1.4,2.9-2,4.4-1.3c1.5,0.7,2.3,2.7,1.6,4.3
					c3.3-0.6,6.8,2.3,7,5.6"/>
			</g>
		</g>
		<g>
			<g>
				<path class="st0" d="M221.3,35.9c0.9-1.8,0.5-4.1-0.9-5.5c-1.4-1.4-3.7-1.9-5.5-1.1c0.1-4-2.8-7.5-6.1-9.9
					c-1.7-1.2-3.5-2.3-5.6-2.5c-2.7-0.3-5.4,0.9-7.5,2.8c-2,1.8-3.5,4.2-4.8,6.6c-0.8-1.4-2.8-2-4.3-1.3c-1.5,0.7-2.2,2.6-1.6,4.1
					c-3.2-0.5-6.6,2.2-6.7,5.5"/>
			</g>
		</g>
		<g>
			<g>
				<path class="st0" d="M39.8,70.3c0.5-1.1,0.3-2.6-0.6-3.5c-0.9-0.9-2.3-1.2-3.4-0.7c0-2.5-1.8-4.7-3.8-6.2
					c-1-0.8-2.2-1.4-3.5-1.6c-1.7-0.2-3.4,0.6-4.7,1.7c-1.3,1.1-2.2,2.6-3,4.1c-0.5-0.9-1.7-1.2-2.7-0.8c-0.9,0.5-1.4,1.6-1,2.6
					c-2-0.3-4.1,1.4-4.2,3.4"/>
			</g>
		</g>
		<g>
			<g>
				<path class="st0" d="M264.7,84.8c0.7-1.4,0.4-3.2-0.7-4.4c-1.1-1.1-2.9-1.5-4.3-0.9c0-3.2-2.2-5.9-4.8-7.8c-1.3-1-2.8-1.8-4.4-2
					c-2.1-0.2-4.3,0.7-5.9,2.2c-1.6,1.5-2.7,3.3-3.8,5.2c-0.7-1.1-2.2-1.6-3.4-1c-1.2,0.6-1.7,2.1-1.3,3.3c-2.5-0.4-5.2,1.7-5.3,4.3
					"/>
			</g>
		</g>
	</g>
	<g>
		<g>
			<path class="st0" d="M228,100.5c0-1.3-1-2.3-2.3-2.3s-2.3,1-2.3,2.3s1,2.3,2.3,2.3S228,101.8,228,100.5z"/>
		</g>
		<g>
			<path class="st0" d="M99.6,80.1c0-1.1-0.9-2-2-2c-1.1,0-2,0.9-2,2c0,1.1,0.9,2,2,2C98.7,82.1,99.6,81.2,99.6,80.1z"/>
		</g>
		<g>
			<path class="st0" d="M113.8,58.6c0-1.3-1-2.3-2.3-2.3c-1.3,0-2.3,1-2.3,2.3s1,2.3,2.3,2.3C112.7,60.9,113.8,59.9,113.8,58.6z"/>
		</g>
		<g>
			<path class="st0" d="M104.5,54.6c0-0.4-0.3-0.7-0.7-0.7c-0.4,0-0.7,0.3-0.7,0.7c0,0.4,0.3,0.7,0.7,0.7
				C104.2,55.3,104.5,55,104.5,54.6z"/>
		</g>
		<g>
			<circle class="st0" cx="176.8" cy="60.9" r="1.7"/>
		</g>
		<g>
			<path class="st0" d="M284.5,184.1c0-1.3-1-2.3-2.3-2.3s-2.3,1-2.3,2.3s1,2.3,2.3,2.3S284.5,185.4,284.5,184.1z"/>
		</g>
		<g>
			<path class="st0" d="M40.1,133.9c0-0.7-0.6-1.3-1.3-1.3c-0.7,0-1.3,0.6-1.3,1.3c0,0.7,0.6,1.3,1.3,1.3
				C39.5,135.2,40.1,134.6,40.1,133.9z"/>
		</g>
		<g>
			<path class="st0" d="M38.1,104.2c0-1.8-1.5-3.3-3.3-3.3c-1.8,0-3.3,1.5-3.3,3.3c0,1.8,1.5,3.3,3.3,3.3
				C36.7,107.5,38.1,106,38.1,104.2z"/>
		</g>
	</g>
</g>
<g>
	<g>
		<g>
			<path class="st1" d="M4.2,227c1.4-7.2,11.9-14.3,19.1-12.6c2.1-8.2,13.2-12.4,20.1-7.7c2.3-8.7,5.1-18.1,12.6-23
				c8.6-5.6,20.5-2.8,28.4,3.6c7.9,6.5,12.7,15.9,17.3,25c0.7-2.3,4-2.9,6.1-1.7c2.1,1.2,3.3,3.5,4.3,5.7
				c11.5-5.7,19.6-17.5,20.8-30.3l21.3-4.5c2,8.8,4.4,18.1,10.9,24.3c6.5,6.2,18.7,7.4,23.7-0.1c1.1-1.7,1.9-3.7,3.7-4.6
				c3.5-1.7,6.9,2.5,8.7,6c3.1-6.2,13.1-7.2,17.4-1.8c3.6-12.2,16.7-20.9,29.4-19.4c12.7,1.5,23.4,13,24,25.8
				c8.4-3.2,22.4,6,24.9,14.6"/>
		</g>
	</g>
	<g>
		<g>
			<path class="st1" d="M134.2,191.3c-0.8,1.8-1.3,3.6-1.4,5.6c0,0.3,0,0.6,0.1,0.9c0.3,0.6,1.1,0.8,1.7,0.6
				c0.6-0.2,1.1-0.7,1.6-1.3c0.3,6.5,3.5,12.9,8.4,17.1c0.2,0.2,0.5,0.4,0.9,0.4c0.3,0,0.5-0.2,0.7-0.4c4.7-4.6,7.2-11.3,6.6-17.9
				c1.2,0.8,2.8-0.5,2.9-1.9c0.1-1.4-0.7-2.6-1.5-3.8"/>
		</g>
	</g>
	<g>
		<g>
			<g>
				<path class="st0" d="M160.1,180L160.1,180l0-10.5h-30.3V180v0c-4,2.6-5.9,7.1-5.9,12.2l0,0H166l0,0C166,187,164,182.6,160.1,180
					z"/>
			</g>
		</g>
		<g class="st2">
			<g>
				<path d="M139.6,172.1c6.6,2.7,20.4,7.9,20.4,7.9v-10.4h-26.6C135.5,170.4,137.6,171.2,139.6,172.1z"/>
			</g>
		</g>
		<g>
			<g>
				<g>
					<path class="st1" d="M172.5,130.6L184,144c2.8,3.3,4.1,7.6,3.5,11.8l-3.1,24.2c-0.2,1.7-1.8,2.9-3.5,2.6l0,0
						c-1.5-0.3-2.6-1.6-2.5-3.1l0.6-10.9c0.4-6.7-4.2-12.7-10.8-14l0,0L172.5,130.6z"/>
				</g>
			</g>
			<g>
				<g>
					<path class="st1" d="M118,130.6L106.5,144c-2.8,3.3-4.1,7.6-3.5,11.8l3.1,24.2c0.2,1.7,1.8,2.9,3.5,2.6l0,0
						c1.5-0.3,2.6-1.6,2.5-3.1l-0.6-10.9c-0.4-6.7,4.2-12.7,10.8-14l0,0L118,130.6z"/>
				</g>
			</g>
		</g>
		<g class="st3">
			<g>
				<g>
					<path d="M179.8,139.2l-7.3-8.6l-4.4,23.9l0,0c1.3,0.3,2.5,0.7,3.6,1.3C174.3,150.3,177,144.7,179.8,139.2z"/>
				</g>
			</g>
			<g>
				<g>
					<path d="M111.9,146c2.5,3.2,5,6.4,7.6,9.6c0.9-0.4,1.9-0.8,2.9-1l0,0l-4.4-23.9l-9.3,10.8C109.9,143,110.9,144.7,111.9,146z"/>
				</g>
			</g>
		</g>
		<g>
			<g>
				<path class="st0" d="M123.6,166c0,0-7.1-18.2-6.7-37.4s-4.4-61.7,9.1-89.3c8-16.5,13.1-23.3,15.8-26c1.2-1.3,3.3-1.1,4.4,0.3
					c4.2,5.7,15.2,20.6,17.9,27.1c3.4,8.1,11.1,23.6,8.4,90c0,0-1.3,24.6-6.1,35.4H123.6z"/>
			</g>
		</g>
		<g class="st2">
			<g>
				<path d="M124,61.1c2-13.2,5.2-26.9,13.1-37.9c0.3-0.5,0.7-0.8,1.1-1c2-3.3,4.1-6.5,6.1-9.8c-0.9-0.2-1.9,0.1-2.6,0.8
					c-2.8,2.8-7.8,9.6-15.8,26c-13.5,27.6-8.8,70.1-9.1,89.3c-0.3,19.2,6.7,37.4,6.7,37.4l43.2-0.2c-42-0.5-45.4-38.2-46-59
					C120.4,91.5,121.8,76.2,124,61.1z"/>
			</g>
		</g>
		<g>
			<g>
				<path class="st1" d="M158.6,39.6c1.8,0.3,3.6,0.6,5.5,1c0,0,0,0,0,0c-2.7-6.5-13.6-21.4-17.9-27.1c-1.1-1.4-3.1-1.6-4.4-0.3
					c-2.8,2.8-7.8,9.6-15.8,26c-0.2,0.4-0.3,0.7-0.5,1.1C136.3,37.7,147.7,37.9,158.6,39.6z"/>
			</g>
		</g>
		<g class="st3">
			<g>
				<path d="M137.4,27.1c3.2-4.2,6.2-8.6,9.4-12.8c-0.2-0.3-0.4-0.5-0.6-0.8c-1.1-1.4-3.1-1.6-4.4-0.3c-2.8,2.8-7.8,9.6-15.8,26
					c-0.2,0.4-0.3,0.7-0.5,1.1c1.5-0.4,3.1-0.7,4.6-1C131.8,34.9,134.6,30.9,137.4,27.1z"/>
			</g>
		</g>
		<g>
			<g>
				<path class="st4" d="M165,171.6h-39.5c-1.8,0-3.2-1.4-3.2-3.2l0,0c0-1.8,1.4-3.2,3.2-3.2H165c1.8,0,3.2,1.4,3.2,3.2l0,0
					C168.2,170.1,166.7,171.6,165,171.6z"/>
			</g>
		</g>
		<g>
			<g>
				<path class="st5" d="M144.3,54.4c-9.4,0-17,7.6-17,17c0,9.4,7.6,17,17,17c9.4,0,17-7.6,17-17C161.3,62,153.7,54.4,144.3,54.4z
					 M144.3,83.4c-6.7,0-12-5.4-12-12c0-6.7,5.4-12,12-12c6.7,0,12,5.4,12,12C156.3,78.1,150.9,83.4,144.3,83.4z"/>
			</g>
		</g>
		<g class="st2">
			<g>
				<ellipse transform="matrix(0.9744 -0.2246 0.2246 0.9744 -12.3522 34.237)" cx="144.3" cy="71.4" rx="12" ry="12"/>
			</g>
		</g>
		<g class="st6">
			<g>
				<g>
					<path class="st7" d="M132.3,72.2c0.4,6.3,5.6,11.2,12,11.2c1,0,2-0.1,2.9-0.4C142.2,79.5,137.2,75.9,132.3,72.2z"/>
				</g>
			</g>
			<g>
				<g>
					<path class="st7" d="M153.5,79.2c1.8-2.1,2.8-4.8,2.8-7.8c0-6.7-5.4-12-12-12c-4.3,0-8.1,2.3-10.2,5.7
						C140.5,69.9,146.9,74.6,153.5,79.2z"/>
				</g>
			</g>
		</g>
		<g>
			<g>
				<g>
					<g>
						<path class="st1" d="M144.3,58.2c-0.7,0-1.2-0.6-1.2-1.2s0.6-1.2,1.2-1.2s1.2,0.6,1.2,1.2S145,58.2,144.3,58.2z M144.3,55.9
							c-0.6,0-1.1,0.5-1.1,1.1s0.5,1.1,1.1,1.1s1.1-0.5,1.1-1.1S144.9,55.9,144.3,55.9z"/>
					</g>
				</g>
				<g>
					<g>
						<path class="st1" d="M144.3,87.1c-0.7,0-1.2-0.6-1.2-1.2c0-0.7,0.6-1.2,1.2-1.2s1.2,0.6,1.2,1.2
							C145.5,86.6,145,87.1,144.3,87.1z M144.3,84.8c-0.6,0-1.1,0.5-1.1,1.1c0,0.6,0.5,1.1,1.1,1.1s1.1-0.5,1.1-1.1
							C145.3,85.3,144.9,84.8,144.3,84.8z"/>
					</g>
				</g>
			</g>
			<g>
				<g>
					<g>
						<path class="st1" d="M154.5,62.4c-0.3,0-0.6-0.1-0.9-0.4c-0.5-0.5-0.5-1.3,0-1.7c0.5-0.5,1.3-0.5,1.7,0c0.5,0.5,0.5,1.3,0,1.7
							C155.2,62.3,154.8,62.4,154.5,62.4z M154.5,60.1c-0.3,0-0.5,0.1-0.8,0.3c-0.4,0.4-0.4,1.1,0,1.5s1.1,0.4,1.5,0s0.4-1.1,0-1.5
							C155.1,60.2,154.8,60.1,154.5,60.1z"/>
					</g>
				</g>
				<g>
					<g>
						<path class="st1" d="M134.1,82.9c-0.3,0-0.6-0.1-0.9-0.4c-0.2-0.2-0.4-0.5-0.4-0.9s0.1-0.6,0.4-0.9c0.5-0.5,1.3-0.5,1.7,0
							c0.2,0.2,0.4,0.5,0.4,0.9s-0.1,0.6-0.4,0.9C134.7,82.7,134.4,82.9,134.1,82.9z M134.1,80.6c-0.3,0-0.5,0.1-0.8,0.3
							c-0.2,0.2-0.3,0.5-0.3,0.8c0,0.3,0.1,0.6,0.3,0.8c0.4,0.4,1.1,0.4,1.5,0c0.2-0.2,0.3-0.5,0.3-0.8c0-0.3-0.1-0.6-0.3-0.8
							C134.6,80.7,134.3,80.6,134.1,80.6z"/>
					</g>
				</g>
			</g>
			<g>
				<g>
					<g>
						<path class="st1" d="M158.8,72.6c-0.7,0-1.2-0.6-1.2-1.2c0-0.7,0.6-1.2,1.2-1.2s1.2,0.6,1.2,1.2
							C160,72.1,159.4,72.6,158.8,72.6z M158.8,70.3c-0.6,0-1.1,0.5-1.1,1.1c0,0.6,0.5,1.1,1.1,1.1s1.1-0.5,1.1-1.1
							C159.8,70.8,159.3,70.3,158.8,70.3z"/>
					</g>
				</g>
				<g>
					<g>
						<path class="st1" d="M129.8,72.6c-0.7,0-1.2-0.6-1.2-1.2c0-0.7,0.6-1.2,1.2-1.2c0.7,0,1.2,0.6,1.2,1.2
							C131,72.1,130.5,72.6,129.8,72.6z M129.8,70.3c-0.6,0-1.1,0.5-1.1,1.1c0,0.6,0.5,1.1,1.1,1.1c0.6,0,1.1-0.5,1.1-1.1
							C130.9,70.8,130.4,70.3,129.8,70.3z"/>
					</g>
				</g>
			</g>
			<g>
				<g>
					<g>
						<path class="st1" d="M154.5,82.9c-0.3,0-0.6-0.1-0.9-0.4c-0.2-0.2-0.4-0.5-0.4-0.9s0.1-0.6,0.4-0.9c0.5-0.5,1.3-0.5,1.7,0
							c0.2,0.2,0.4,0.5,0.4,0.9s-0.1,0.6-0.4,0.9C155.2,82.7,154.8,82.9,154.5,82.9z M154.5,80.6c-0.3,0-0.5,0.1-0.8,0.3
							c-0.2,0.2-0.3,0.5-0.3,0.8c0,0.3,0.1,0.6,0.3,0.8c0.4,0.4,1.1,0.4,1.5,0c0.2-0.2,0.3-0.5,0.3-0.8c0-0.3-0.1-0.6-0.3-0.8
							C155.1,80.7,154.8,80.6,154.5,80.6z"/>
					</g>
				</g>
				<g>
					<g>
						<path class="st1" d="M134.1,62.4c-0.3,0-0.6-0.1-0.9-0.4c-0.5-0.5-0.5-1.3,0-1.7c0.5-0.5,1.3-0.5,1.7,0c0.5,0.5,0.5,1.3,0,1.7
							C134.7,62.3,134.4,62.4,134.1,62.4z M134.1,60.1c-0.3,0-0.5,0.1-0.8,0.3c-0.4,0.4-0.4,1.1,0,1.5c0.4,0.4,1.1,0.4,1.5,0
							c0.4-0.4,0.4-1.1,0-1.5C134.6,60.2,134.3,60.1,134.1,60.1z"/>
					</g>
				</g>
			</g>
		</g>
		<g class="st2">
			<g>
				<path class="st5" d="M116.8,95.9l-0.1-0.3c0,0,1-0.3,2.7-0.8l0.1,0.3C117.7,95.6,116.8,95.9,116.8,95.9z M171.8,95.5
					c-0.2-0.1-0.5-0.2-0.7-0.2l0.1-0.3c0.2,0.1,0.5,0.2,0.7,0.2L171.8,95.5z M122.1,94.4l-0.1-0.3c0.9-0.2,1.8-0.4,2.7-0.6l0.1,0.3
					C123.9,94,123,94.2,122.1,94.4z M168.5,94.4c-0.9-0.3-1.8-0.5-2.7-0.7l0.1-0.3c0.9,0.2,1.8,0.5,2.7,0.7L168.5,94.4z M127.5,93.3
					l-0.1-0.3c0.9-0.2,1.8-0.3,2.7-0.5l0.1,0.3C129.3,93,128.4,93.1,127.5,93.3z M163.1,93.1c-0.9-0.2-1.8-0.3-2.7-0.5l0.1-0.3
					c0.9,0.2,1.8,0.3,2.7,0.5L163.1,93.1z M132.9,92.4l0-0.3c0.9-0.1,1.8-0.2,2.7-0.3l0,0.3C134.8,92.2,133.9,92.3,132.9,92.4z
					 M157.7,92.2c-0.9-0.1-1.8-0.2-2.7-0.3l0-0.3c0.9,0.1,1.9,0.2,2.8,0.3L157.7,92.2z M138.4,91.8l0-0.3c0.9-0.1,1.9-0.1,2.8-0.2
					l0,0.3C140.3,91.7,139.3,91.8,138.4,91.8z M152.2,91.7c-0.9-0.1-1.8-0.1-2.8-0.1l0-0.3c0.9,0,1.9,0.1,2.8,0.1L152.2,91.7z
					 M143.9,91.5l0-0.3c0.9,0,1.7,0,2.6,0h0.2v0.3h-0.2C145.7,91.5,144.8,91.5,143.9,91.5z"/>
			</g>
		</g>
		<g class="st2">
			<g>
				<path class="st5" d="M120.2,54.5l-0.1-0.3c0.9-0.2,1.8-0.5,2.7-0.7l0.1,0.3C122,54,121.1,54.3,120.2,54.5z M166.6,53.5
					c-0.9-0.2-1.8-0.4-2.7-0.6l0.1-0.3c0.9,0.2,1.8,0.4,2.7,0.6L166.6,53.5z M125.6,53.2l-0.1-0.3c0.9-0.2,1.8-0.4,2.7-0.5l0.1,0.3
					C127.4,52.9,126.5,53,125.6,53.2z M161.3,52.3c-0.9-0.2-1.8-0.3-2.7-0.4l0-0.3c0.9,0.1,1.8,0.3,2.7,0.4L161.3,52.3z M131.1,52.3
					l-0.1-0.3c0.9-0.1,1.8-0.3,2.7-0.4l0,0.3C132.9,52,132,52.1,131.1,52.3z M136.5,51.6l0-0.3c0.9-0.1,1.8-0.2,2.8-0.2l0,0.3
					C138.4,51.4,137.4,51.5,136.5,51.6z M155.8,51.5c-0.9-0.1-1.8-0.2-2.7-0.2l0-0.3c0.9,0.1,1.9,0.2,2.8,0.2L155.8,51.5z M142,51.2
					l0-0.3c0.9,0,1.9-0.1,2.8-0.1l0,0.3C143.9,51.1,142.9,51.1,142,51.2z M150.3,51.1c-0.9,0-1.8-0.1-2.8-0.1l0-0.3
					c0.9,0,1.8,0,2.8,0.1L150.3,51.1z"/>
			</g>
		</g>
		<g class="st2">
			<g>
				<path class="st5" d="M116.8,102.8l-0.1-0.3c0,0,1-0.3,2.7-0.8l0.1,0.3C117.7,102.5,116.8,102.8,116.8,102.8z M171.8,102.3
					c-0.2-0.1-0.5-0.2-0.7-0.2l0.1-0.3c0.2,0.1,0.5,0.2,0.7,0.2L171.8,102.3z M122.1,101.3L122,101c0.9-0.2,1.8-0.4,2.7-0.6l0.1,0.3
					C123.9,100.9,123,101.1,122.1,101.3z M168.5,101.3c-0.9-0.3-1.8-0.5-2.7-0.7l0.1-0.3c0.9,0.2,1.8,0.5,2.7,0.7L168.5,101.3z
					 M127.5,100.2l-0.1-0.3c0.9-0.2,1.8-0.3,2.7-0.5l0.1,0.3C129.3,99.9,128.4,100,127.5,100.2z M163.1,100
					c-0.9-0.2-1.8-0.3-2.7-0.5l0.1-0.3c0.9,0.2,1.8,0.3,2.7,0.5L163.1,100z M132.9,99.3l0-0.3c0.9-0.1,1.8-0.2,2.7-0.3l0,0.3
					C134.8,99.1,133.9,99.2,132.9,99.3z M157.7,99.1c-0.9-0.1-1.8-0.2-2.7-0.3l0-0.3c0.9,0.1,1.9,0.2,2.8,0.3L157.7,99.1z
					 M138.4,98.7l0-0.3c0.9-0.1,1.9-0.1,2.8-0.2l0,0.3C140.3,98.6,139.3,98.6,138.4,98.7z M152.2,98.6c-0.9-0.1-1.8-0.1-2.8-0.1
					l0-0.3c0.9,0,1.9,0.1,2.8,0.1L152.2,98.6z M143.9,98.4l0-0.3c0.9,0,1.7,0,2.6,0h0.2v0.3h-0.2C145.7,98.4,144.8,98.4,143.9,98.4z
					"/>
			</g>
		</g>
	</g>
	<g>
		<g class="st8">
			<g>
				<g>
					<path class="st5" d="M155.5,199.6c0.7,2.3,1.6,4.6,2.9,6.6c1.3,2,2.8,3.9,4.6,5.4c1.8,1.6,3.8,2.8,6,3.8c2.2,1,4.5,1.6,6.9,1.9
						c-2.4,0.1-4.9-0.3-7.2-1.2c-2.3-0.8-4.5-2.1-6.4-3.7c-1.9-1.6-3.4-3.6-4.6-5.8C156.6,204.4,155.8,202,155.5,199.6z"/>
				</g>
			</g>
		</g>
		<g class="st8">
			<g>
				<g>
					<path class="st5" d="M134.7,201.9c-0.3,2.2-0.9,4.3-1.8,6.3c-0.9,2-2.1,3.9-3.5,5.6c-1.4,1.7-3,3.2-4.8,4.5
						c-1.8,1.3-3.8,2.3-5.8,2.9c1.9-1,3.7-2.2,5.4-3.6c1.7-1.4,3.2-2.9,4.5-4.5c1.4-1.6,2.5-3.4,3.6-5.3
						C133.2,206,134,204,134.7,201.9z"/>
				</g>
			</g>
		</g>
		<g class="st8">
			<g>
				<g>
					<path class="st5" d="M136.6,213.5c-0.1,0.8-0.4,1.5-0.6,2.2c-0.3,0.7-0.6,1.4-0.9,2c-0.3,0.7-0.7,1.3-1.1,1.9
						c-0.4,0.6-0.8,1.2-1.3,1.8c0.1-0.8,0.4-1.5,0.6-2.2c0.3-0.7,0.6-1.4,0.9-2c0.3-0.7,0.7-1.3,1.1-1.9
						C135.7,214.7,136.1,214.1,136.6,213.5z"/>
				</g>
			</g>
		</g>
		<g class="st8">
			<g>
				<g>
					<path class="st5" d="M145.5,218.5c0.3,0.3,0.4,0.6,0.5,0.9c0.1,0.3,0.2,0.6,0.3,1c0.1,0.3,0.1,0.7,0.1,1c0,0.3-0.1,0.7-0.2,1.1
						c-0.3-0.3-0.4-0.6-0.5-0.9c-0.1-0.3-0.2-0.6-0.3-1c-0.1-0.3-0.1-0.7-0.1-1C145.3,219.2,145.4,218.8,145.5,218.5z"/>
				</g>
			</g>
		</g>
		<g class="st8">
			<g>
				<g>
					<path class="st5" d="M152.2,213.2l1.3,2.1c0.4,0.7,0.9,1.4,1.4,2c0.5,0.7,1,1.3,1.5,1.9l1.6,1.9c-0.8-0.3-1.5-0.8-2.2-1.4
						c-0.7-0.6-1.3-1.2-1.8-1.9c-0.5-0.7-0.9-1.5-1.3-2.2C152.5,214.8,152.3,214,152.2,213.2z"/>
				</g>
			</g>
		</g>
	</g>
</g>
<g>
	<g>
		<g>
			
				<rect x="58" y="194.8" transform="matrix(-1 -1.224647e-16 1.224647e-16 -1 156.4247 392.5212)" class="st9" width="40.4" height="2.9"/>
		</g>
		<g>
			<polygon class="st9" points="81.8,229.3 81.5,229.1 97.6,198 58.2,198 42.1,229.3 41.8,229.1 58,197.7 98.1,197.7 			"/>
		</g>
		<g>
			<rect x="52.3" y="208.9" class="st9" width="39.5" height="0.3"/>
		</g>
		<g>
			<rect x="45.4" y="222.3" class="st9" width="39.5" height="0.3"/>
		</g>
		<g>
			<g>
				<polygon points="82.2,229.9 84.6,225.3 82.4,225.4 80,230 				"/>
			</g>
		</g>
		<g>
			<g>
				<polygon points="43,229.9 45.3,225.3 43.1,225.4 40.8,230 				"/>
			</g>
		</g>
		<g>
			
				<rect x="101.9" y="197.2" transform="matrix(0.9601 -0.2796 0.2796 0.9601 -55.3287 37.0161)" class="st9" width="0.3" height="30.5"/>
		</g>
		<g>
			
				<rect x="62.3" y="197.2" transform="matrix(0.9601 -0.2796 0.2796 0.9601 -56.907 25.95)" class="st9" width="0.3" height="30.5"/>
		</g>
	</g>
	<g>
		<g>
			<g>
				<path class="st10" d="M104.2,105.7c0,0-8.5,13.1-10.9,11.4c0,0-3.7-1.9-2.4-9.6c0-0.7,0-1.3,0-1.4c0,0-0.6-7.6-1.8-9.1
					c-0.1-0.2-0.5-0.5-0.5-0.5c3.8-1,5.3,7.2,6.4,11.6c0,0.2,7.2-5.4,7.2-5.4s3.8-5,4.1-4.7c0.4,0.4-1.1,2.7-1.1,2.7
					s0.1,0.3,0.4,0.4c0.3,0.1,0.4,0.3,0.5,0.7c0.1,0.4,0.5,0.6,0.5,0.8C106.7,102.7,105,105.1,104.2,105.7z"/>
			</g>
			<g>
				<path class="st10" d="M102.3,102.6c0,0,0.8-2.2,1.1-2.1c0.3,0.1,1.7,0.7,1.7,1.2c0,0.5-1.2,0.1-1.2,0.1s0.2,1.2-0.4,1.4
					C102.9,103.3,102.3,102.6,102.3,102.6z"/>
			</g>
			<g>
				<g>
					<g>
						<path class="st11" d="M104.2,101.7c0,0,0,0.5,0.4,0.6c0,0,0.1,0.6,0.7,0.4c0,0-0.2,0.3,0.2,0.3
							C105.5,103.1,104,104.7,104.2,101.7z"/>
					</g>
				</g>
				<g>
					<g>
						<path class="st12" d="M103.9,100.6c0.3,0.1,0.6,0.2,0.9,0.4c0.2,0.1,0.3,0.1,0.4,0.2c0.1,0.1,0.2,0.1,0.2,0.2
							c0,0.1,0,0.3-0.1,0.3c-0.3,0.3-0.7,0.3-1,0.2c-0.1,0-0.2,0-0.2,0c0,0,0,0.1,0,0.2l0,0.5l0,0l-0.1-0.5c0-0.1-0.1-0.2,0-0.2
							c0.1-0.1,0.2,0,0.2,0c0.3,0,0.7,0,0.9-0.2c0.1-0.1,0.1-0.1,0.1-0.2c0-0.1-0.1-0.1-0.1-0.2c-0.1-0.1-0.3-0.2-0.4-0.2
							L103.9,100.6L103.9,100.6z"/>
					</g>
				</g>
				<g>
					<g>
						<path class="st12" d="M105.2,100.5c0,0.1,0,0.1-0.1,0.2c0,0.1-0.1,0.1-0.1,0.1c0,0-0.1,0.1-0.1,0.1c-0.1,0-0.1,0.1-0.2,0.1
							l0,0C104.9,100.8,105,100.6,105.2,100.5L105.2,100.5z"/>
					</g>
				</g>
				<g>
					<g>
						<path class="st12" d="M105.9,101.3c-0.1,0.2-0.2,0.3-0.3,0.4c-0.1,0.1-0.2,0.2-0.4,0.4c-0.1,0.1-0.3,0.2-0.4,0.3
							c-0.1,0-0.2,0.1-0.3,0c-0.1,0-0.2-0.1-0.2-0.2l0,0c0.1,0.1,0.3,0.1,0.4,0c0.1-0.1,0.3-0.2,0.4-0.3
							C105.4,101.8,105.6,101.5,105.9,101.3L105.9,101.3z"/>
					</g>
				</g>
				<g>
					<g>
						<path class="st12" d="M104.6,102.3c0.1,0.2,0.2,0.4,0.3,0.4c0.1,0.1,0.3,0,0.4-0.1c0.1-0.1,0.3-0.2,0.4-0.4
							c0.1-0.1,0.3-0.3,0.4-0.4l0,0c-0.1,0.2-0.2,0.3-0.4,0.4c-0.1,0.1-0.3,0.3-0.4,0.4c-0.2,0.1-0.4,0.2-0.6,0.1
							C104.7,102.7,104.6,102.5,104.6,102.3L104.6,102.3z"/>
					</g>
				</g>
				<g>
					<g>
						<path class="st12" d="M105.3,102.7c0,0.1,0.1,0.2,0.2,0.3c0,0,0.1,0.1,0.1,0.1c0,0,0,0,0.1,0c0.1,0,0.2,0,0.3,0
							c0.1,0,0.2,0,0.3-0.1l0,0c-0.1,0.1-0.2,0.2-0.3,0.2c-0.1,0-0.2,0.1-0.4,0.1c-0.1,0-0.1,0-0.2-0.1c0,0-0.1-0.1-0.1-0.2
							C105.3,102.9,105.3,102.8,105.3,102.7L105.3,102.7z"/>
					</g>
				</g>
			</g>
		</g>
		<g>
			<g>
				<g>
					<path d="M80.2,101.9c0,0-5.1-0.6-4.5-0.9c0.6-0.3,4.9-1.9,5.7-2.4c0.8-0.5,1.4-0.4,1.4-0.4l6-13.9c0.1-0.8-1.4-2.8-2.1-3.2
						c-2-1.1-4.4-1.3-6.6-0.8c-7.2,1.5-18.7,6.7-22.6,10.4c0,0,17.4,16.5,23,15.7"/>
				</g>
			</g>
			<g>
				<g>
					<g>
						<path d="M56.4,89.5c3.7-1.9,7.6-3.5,11.5-5c3.2-1.2,6.4-2.4,9.7-3.2c1.2-0.3,2.4-0.6,3.6-0.6c0.3,0,0.3-0.4,0-0.4
							c-2.5,0-5,0.9-7.3,1.6c-3.7,1.2-7.4,2.6-11,4.2c-2.2,1-4.4,2-6.6,3.1C55.9,89.2,56.2,89.6,56.4,89.5L56.4,89.5z"/>
					</g>
				</g>
			</g>
			<g>
				<g>
					<path class="st10" d="M81.2,87.4c0,0.1-0.1,0.2-0.2,0.2c-0.5,0-1.5-0.1-1.7,1.1c-0.2,1.2,1,1.9,1.7,1.9c0.2,0,0.7,0.1,0.8,0.2
						c0.4,0.5,0.6,1.4,0.9,2.7c0.7,2.7-1.4,4-1.4,4s7.1,3.5,7.1,0c0,0-0.6-6.5-0.5-6.5c0.6-0.6,2.7-0.8,1.4-5.4
						c-1.3-4.3-4.4-4-5.2-3.8C83.3,81.9,81,82,81.2,87.4z"/>
				</g>
			</g>
			<g>
				<g>
					<path d="M86.2,81.3c0,0-4.4,5.8-5.1,6.3C81.1,87.6,78.1,80.6,86.2,81.3z"/>
				</g>
			</g>
			<g>
				<g>
					<g>
						<path class="st12" d="M79.8,89.1c0,0,0.7-1.5,1.6,0.5"/>
					</g>
				</g>
				<g>
					<g>
						<path class="st11" d="M85.1,87.5c0.6,0,1.1,0.5,1.1,1c0,0.6-0.5,1.1-1,1.1c-0.6,0-1.1-0.5-1.1-1C84.1,88,84.6,87.5,85.1,87.5z
							"/>
					</g>
				</g>
				<g>
					<g>
						<path class="st11" d="M89.6,87.9c-0.5-0.1-0.9-0.5-0.9-1c0-0.4,0.2-0.8,0.5-0.9C89.2,85.9,89.7,87.1,89.6,87.9z"/>
					</g>
				</g>
				<g>
					<g>
						<path class="st5" d="M88.7,87.3l-1.6,0.8c0,0,0.8,0.6,1.2,0.3C88.7,88.1,88.7,87.3,88.7,87.3z"/>
					</g>
				</g>
				<g>
					<g>
						<path class="st12" d="M87.5,86.1l0.3,1.2l0.6-0.3c0.1,0,0.1-0.2,0-0.3L87.5,86.1z"/>
					</g>
				</g>
				<g>
					<g>
						<path class="st13" d="M85.4,85.7c-0.1,0.2-0.1-0.5,0.2-0.7s0.5-0.1,0.7,0.1C86.2,85.1,85.7,85.2,85.4,85.7z"/>
					</g>
				</g>
				<g>
					<g>
						<path class="st13" d="M88.4,84.5c0.2,0.1-0.3-0.4-0.5-0.4c-0.3,0-0.5,0.2-0.5,0.5C87.4,84.6,87.9,84.4,88.4,84.5z"/>
					</g>
				</g>
				<g>
					<g>
						<path class="st13" d="M86.3,86.5c0.1,0.2,0.2,0.3,0.3,0.3c0.1,0,0.1-0.2,0-0.4c-0.1-0.2-0.2-0.3-0.3-0.3
							C86.2,86.2,86.2,86.3,86.3,86.5z"/>
					</g>
				</g>
				<g>
					<g>
						<path class="st13" d="M87.8,85.8c0.1,0.2,0.2,0.3,0.3,0.3c0.1,0,0.1-0.2,0-0.4c-0.1-0.2-0.2-0.3-0.3-0.3
							C87.7,85.4,87.7,85.6,87.8,85.8z"/>
					</g>
				</g>
			</g>
			<g class="st2">
				<g>
					<path d="M87.8,91c0,0-2,0.4-3.1,0.3S88.9,97.2,87.8,91z"/>
				</g>
			</g>
			<g>
				<g>
					<g>
						<path d="M85.5,81.9c0.1,1.4-0.7,2.8-1.6,3.8c-0.8,0.9-2.1,1.7-3.4,1.5c-0.3,0-0.3,0.4,0,0.4c1.4,0.1,2.8-0.6,3.7-1.7
							c1-1.1,1.9-2.6,1.8-4.1C85.9,81.6,85.5,81.6,85.5,81.9L85.5,81.9z"/>
					</g>
				</g>
			</g>
		</g>
		<g>
			<g>
				<g>
					<path class="st14" d="M82.5,185l0.8,5.6c0,0,1.3,3.7,2.4,2.3c1.2-1.4,2.3-2.2,2.3-2.2l0.4-5.8L82.5,185z"/>
				</g>
				<g>
					<path class="st10" d="M85.5,185.2l0.2,7.6c0,0-3.7,0.6-2.3-1.9l-0.8-5.3L85.5,185.2z"/>
				</g>
				<g>
					<path class="st14" d="M69.6,185.1l-1.7,5.6c0,0-1.3,1.2-1.8,1.1c-0.9-0.1-1.3-1.6-1.3-1.6l-0.1-5.2H69.6z"/>
				</g>
				<g>
					<path class="st10" d="M67.1,183.6l-1.2,9.2c0,0-2.5,0.7-1.1-1.8l-0.3-7.1L67.1,183.6z"/>
				</g>
				<g>
					<path d="M88.4,190.6l4.7,3.8c0.2,0.2,0.1,0.5-0.3,0.5l-6.9,0.1c-0.2,0-0.3-0.1-0.4-0.2l-0.5-1.1c-0.2-0.3-0.5-0.3-0.4,0l-0.3,1
						c0,0.2-1.6,0.1-1.7,0c-0.1-0.9,0.1-3.9,0.3-4.8c0-0.1,0.1-0.2,0.3-0.2l0,0c0.1,0,0.3,0,0.4,0.1c0.5,0.5,2,1.8,2.8,1.5
						c0.5-0.2,1.2-0.5,1.4-0.7C88,190.5,88.2,190.5,88.4,190.6z"/>
				</g>
				<g>
					<path d="M64.7,190.1l-2.7,4.5c-0.3,0.4-0.1,1,0.4,1.3c0.8,0.5,1.5,1.5,2,1.5c0.9,0,2.4-1,3.3-1.3c0.6-0.3,1-0.6,1-1.1l-0.7-4.5
						c0-0.1-0.1-0.1-0.2,0l-1,0.9c-0.3,0.3-1.2,0.3-1.5-0.1c-0.2-0.3-0.5-1.1-0.5-1.1C64.8,190,64.7,190,64.7,190.1z"/>
				</g>
			</g>
			<g>
				<path class="st15" d="M77.8,115.6c-2,3.6-3.1,6.2-4.2,10.7c-1.3,5.3-13.8,49.8-14.4,59.3c1.7,0.4,14.5,0.3,15.6,0.3
					c3.3-9.5,7.8-40.6,9.2-46.6c0.2-0.9,1.6-0.7,1.5,0.2c-0.8,6.9-5.8,35.8-8,46.4c0.9,0.4,14.1,0.3,15.1,0.2
					c1.1-11.8,6.9-56.4-1.9-70.9C86.7,114.7,81.8,115.4,77.8,115.6z"/>
			</g>
			<g>
				<g>
					<path class="st5" d="M89.5,185.7l-0.2,0c0-0.4,4.3-35.3,4.3-47.6c0-12.3-3.8-22.1-3.9-22.2l0.1-0.1c0,0.1,3.9,10,3.9,22.3
						C93.8,150.4,89.5,185.4,89.5,185.7z"/>
				</g>
				<g>
					<polygon class="st5" points="61.8,185.5 61.7,185.5 79.7,116.4 79.8,116.5 					"/>
				</g>
				<g>
					<path class="st5" d="M77.6,127.4c-0.2,0-0.4,0-0.6-0.1l0-0.2c0.9,0.2,1.6-0.1,2.3-0.6c2.7-2.3,2.8-9.7,2.8-9.8l0.2,0
						c0,0.3-0.1,7.6-2.9,9.9C78.9,127.2,78.3,127.4,77.6,127.4z"/>
				</g>
				<g>
					<path class="st5" d="M92.3,127.9c-0.6,0-1.2-0.2-1.7-0.7c-2.7-2.4-2.3-10.4-2.2-10.8l0.2,0c0,0.1-0.5,8.3,2.2,10.6
						c0.6,0.5,1.3,0.7,2.1,0.6l0,0.2C92.7,127.9,92.5,127.9,92.3,127.9z"/>
				</g>
			</g>
			<g class="st16">
				<path class="st13" d="M90.8,116l-16.6,13.5c0,0-0.1-8.7,2.8-14.2L90.8,116z"/>
			</g>
		</g>
		<g>
			<g>
				<path class="st0" d="M89.8,97c-0.1,0.3,3.2,8.4,3,11.2c-0.1,2.8-0.1,6.8,0.1,7.2c0,0-4.1,2.4-16.1,0.5
					c-3.7-3.2-0.4-14.1,0.8-17.6c0,0,2.4-1.2,3.4-1.3C81,97.1,85.3,98.9,89.8,97z"/>
			</g>
			<g>
				<g>
					<path class="st5" d="M81,97.1l1.7-2.2c0,0,2,1.4,5,2.5l0,3.9c0,0.1-0.1,0.2-0.2,0.1C86.5,100.9,82.2,99,81,97.1z"/>
				</g>
				<g>
					<path class="st5" d="M88.1,94.7c0,0,0.5,1.8-0.4,2.5l1.3,3.8c0.1,0.3,0.3,0.3,0.3,0.1c0.2-1,0.6-3.1,0.3-4.4L88.1,94.7z"/>
				</g>
				<g>
					<path class="st5" d="M88.7,101.4c0,0.3-0.1,0.5-0.3,0.5s-0.3-0.2-0.3-0.5c0-0.3,0.1-0.5,0.3-0.5S88.7,101.1,88.7,101.4z"/>
				</g>
				<g>
					<path class="st5" d="M88.9,103.6c0,0.3-0.1,0.5-0.3,0.5s-0.3-0.2-0.3-0.5c0-0.3,0.1-0.5,0.3-0.5S88.9,103.3,88.9,103.6z"/>
				</g>
				<g>
					<path class="st5" d="M89,106.1c0,0.3-0.1,0.5-0.3,0.5c-0.2,0-0.3-0.2-0.3-0.5c0-0.3,0.1-0.5,0.3-0.5
						C88.9,105.5,89,105.8,89,106.1z"/>
				</g>
				<g>
					<ellipse class="st5" cx="88.7" cy="108.7" rx="0.3" ry="0.5"/>
				</g>
				<g>
					<path class="st5" d="M89,111.4c0,0.3-0.1,0.5-0.3,0.5c-0.2,0-0.3-0.2-0.3-0.5c0-0.3,0.1-0.5,0.3-0.5
						C88.9,110.9,89,111.2,89,111.4z"/>
				</g>
				<g>
					<ellipse class="st5" cx="88.7" cy="114.1" rx="0.3" ry="0.5"/>
				</g>
			</g>
		</g>
		<g>
			<g>
				<g>
					<path class="st17" d="M79.6,140.9L64.2,131l6.4-10l11.2,7.2c2.3,1.5,3,4.6,1.5,6.9L79.6,140.9z"/>
				</g>
				<g>
					<path class="st5" d="M77.2,130.9c0,1.2-1,2.1-2.1,2.1c-1.2,0-2.1-1-2.1-2.1c0-1.2,1-2.1,2.1-2.1
						C76.3,128.7,77.2,129.7,77.2,130.9z"/>
				</g>
			</g>
			<g>
				<g class="st18">
					<path class="st13" d="M74.1,123c0,0-2.5,1.2-0.6,8.2c0.1,0.4,0.2,0.8,0.1,1.2l-0.4,3c-0.1,0.3-0.1,0.8,0.2,0.9
						c0.3,0.2,2.3,2,2.5,2.1c0.5,0.2,0-2.2,0-3.5c0-0.2,0.1,0.8,0.1,1.2l0.1,1c0.6-0.3,0.6-1.4,0.7-1.8c0.1-0.5,0-0.8,0-1
						c-0.3-0.6-0.8-1.7-0.9-2.7c0-0.6,0.4-2.8,0.7-6.8L74.1,123z"/>
				</g>
				<g>
					<path class="st10" d="M73.8,105.8c-4.6,25.8-1.6,30.7-1.3,30.9c0.4,0.3,2.5,2.2,2.8,2.3c0.5,0.2,0-2.4,0-3.8
						c0-0.2,0.1,0.9,0.1,1.4l0.1,1.1c0.6-0.3,0.6-1.5,0.7-2c0.1-0.6,0-0.9,0-1.1c-0.3-0.6-0.9-1.8-0.9-2.9
						c-0.1-0.6,4.3-21.6,5.1-24.6c1-4.2-0.3-9-1.7-9.1C76.8,97.7,74.2,103.7,73.8,105.8z"/>
				</g>
			</g>
		</g>
	</g>
</g>
<g>
	<g>
		<g>
			<path class="st19" d="M102.2,78.2h8.5l2.8,3.3v-7.8c0-2.5-1.5-4.6-3.4-4.6h-7.8c-1.9,0-3.4,2-3.4,4.6l0,0
				C98.8,76.1,100.3,78.2,102.2,78.2z"/>
		</g>
		<g>
			<rect x="105.3" y="72.4" class="st5" width="1.4" height="3.4"/>
		</g>
		<g>
			<rect x="103.2" y="73.5" class="st5" width="1.4" height="2.3"/>
		</g>
		<g>
			<rect x="107.5" y="71.4" class="st5" width="1.4" height="4.4"/>
		</g>
	</g>
	<g>
		<g>
			<g>
				<path class="st1" d="M197.3,98.9c0-3.3-2.6-5.9-5.9-5.9c-3.3,0-5.9,2.6-5.9,5.9c0,3.3,5.6,8.4,5.6,8.4S197.3,102.1,197.3,98.9z"
					/>
			</g>
			<g>
				<path class="st1" d="M191.1,107.3c0,0,6.2-5.1,6.2-8.4c0-3.3-2.6-5.9-5.9-5.9"/>
			</g>
			<g>
				<path class="st5" d="M192.6,104.8l-0.2,0c0-0.4,0.1-0.9,0.1-1.4c0.1-1.1,0.1-2.1,0.2-2.9c-0.8,0-1.9,0.1-2.7,0
					c0,1.6-0.3,3.8-0.3,4.1l-0.2,0c0.1-1.2,0.3-2.9,0.3-4.1c-0.3,0-0.6,0-0.7-0.1c-0.5-0.1-0.6-0.4-0.6-0.5c0-0.4,0.4-0.9,0.9-1.2
					c0.1,0,0.2,0,0.2,0c0.2,0.1,0.3,0.8,0.3,1.6c0.8,0,1.9,0,2.7,0c0.1-0.7,0.3-1.2,0.5-1.3c0.1-0.1,0.2-0.1,0.4,0
					c0.7,0.3,0.3,1.4,0.3,1.4l0,0.1l-0.1,0c0,0-0.5,0-1,0c-0.1,0.8-0.2,1.9-0.2,2.9C192.7,103.9,192.7,104.3,192.6,104.8z
					 M189.7,98.8C189.7,98.8,189.7,98.8,189.7,98.8c-0.5,0.2-0.9,0.7-0.9,1c0,0.2,0.3,0.3,0.5,0.4c0.2,0,0.4,0.1,0.7,0.1
					C189.9,99.5,189.9,99,189.7,98.8C189.7,98.9,189.7,98.8,189.7,98.8z M193.6,99c0,0-0.1,0-0.1,0c-0.2,0.1-0.4,0.6-0.5,1.2
					c0.5,0,0.8,0,0.9,0c0.1-0.2,0.2-1-0.3-1.2C193.6,99,193.6,99,193.6,99z"/>
			</g>
			<g>
				<g>
					<path class="st20" d="M193.5,105.9h-4.8c-0.4,0-0.7-0.3-0.7-0.7l0,0c0-0.4,0.3-0.7,0.7-0.7h4.8c0.4,0,0.7,0.3,0.7,0.7l0,0
						C194.2,105.6,193.9,105.9,193.5,105.9z"/>
				</g>
				<g>
					<path class="st20" d="M191.2,109L191.2,109c-1.5,0-2.8-1.2-2.8-2.8v-0.5h5.5v0.5C194,107.7,192.8,109,191.2,109z"/>
					<path class="st21" d="M191.2,109.1c-1.6,0-2.9-1.3-2.9-2.9v-0.6h5.7v0.6C194.1,107.8,192.8,109.1,191.2,109.1z M188.6,105.8
						v0.4c0,1.5,1.2,2.7,2.7,2.7c1.5,0,2.7-1.2,2.7-2.7v-0.4H188.6z"/>
				</g>
			</g>
		</g>
		<g>
			<g>
				<g>
					<path class="st5" d="M183.5,99.1h-2.7c-0.1,0-0.2-0.1-0.2-0.2s0.1-0.2,0.2-0.2h2.7c0.1,0,0.2,0.1,0.2,0.2
						S183.6,99.1,183.5,99.1z"/>
				</g>
				<g>
					<path class="st5" d="M202.2,99.1h-2.7c-0.1,0-0.2-0.1-0.2-0.2s0.1-0.2,0.2-0.2h2.7c0.1,0,0.2,0.1,0.2,0.2
						S202.4,99.1,202.2,99.1z"/>
				</g>
			</g>
			<g>
				<g>
					<path class="st5" d="M185.8,93.4c-0.1,0-0.1,0-0.1-0.1l-1.9-1.9c-0.1-0.1-0.1-0.2,0-0.3c0.1-0.1,0.2-0.1,0.3,0l1.9,1.9
						c0.1,0.1,0.1,0.2,0,0.3C185.9,93.4,185.9,93.4,185.8,93.4z"/>
				</g>
				<g>
					<path class="st5" d="M199.1,106.7c-0.1,0-0.1,0-0.1-0.1l-1.9-1.9c-0.1-0.1-0.1-0.2,0-0.3c0.1-0.1,0.2-0.1,0.3,0l1.9,1.9
						c0.1,0.1,0.1,0.2,0,0.3C199.2,106.7,199.2,106.7,199.1,106.7z"/>
				</g>
			</g>
			<g>
				<g>
					<path class="st5" d="M191.5,91.1c-0.1,0-0.2-0.1-0.2-0.2v-2.7c0-0.1,0.1-0.2,0.2-0.2c0.1,0,0.2,0.1,0.2,0.2v2.7
						C191.7,91,191.6,91.1,191.5,91.1z"/>
				</g>
			</g>
			<g>
				<g>
					<path class="st5" d="M197.2,93.4c-0.1,0-0.1,0-0.1-0.1c-0.1-0.1-0.1-0.2,0-0.3l1.9-1.9c0.1-0.1,0.2-0.1,0.3,0
						c0.1,0.1,0.1,0.2,0,0.3l-1.9,1.9C197.3,93.4,197.3,93.4,197.2,93.4z"/>
				</g>
				<g>
					<path class="st5" d="M183.9,106.7c-0.1,0-0.1,0-0.1-0.1c-0.1-0.1-0.1-0.2,0-0.3l1.9-1.9c0.1-0.1,0.2-0.1,0.3,0
						c0.1,0.1,0.1,0.2,0,0.3l-1.9,1.9C184,106.7,184,106.7,183.9,106.7z"/>
				</g>
			</g>
		</g>
	</g>
</g>
<g>
	<g>
		<g>
			<path d="M196.9,125.8c-0.1-0.8,2.6-10.7,3-11.4c1-1.9,5.8-2.3,7.8-1c3.3,2.1,8.4,11.6,7.4,14.1L196.9,125.8z"/>
		</g>
		<g>
			<path class="st22" d="M206.9,120.1c0,0.1,0.1,0.2,0.2,0.2c0.5,0,1.5-0.1,1.7,1.1c0.2,1.2-1,1.9-1.7,1.9c-0.2,0-0.7,0.1-0.8,0.2
				c-0.4,0.5-0.6,1.4-0.9,2.7c-0.7,2.7,1.4,4,1.4,4s-7.1,3.5-7.1,0c0,0,0.6-6.5,0.5-6.5c-0.6-0.6-2.7-0.8-1.4-5.4
				c1.3-4.3,4.4-4,5.2-3.8C204.7,114.6,207.1,114.7,206.9,120.1z"/>
		</g>
		<g>
			<path class="st22" d="M207.1,120c0,0.1,0.1,0.2,0.2,0.2c0.5,0,1.5-0.1,1.7,1.1c0.2,1.2-1,1.9-1.7,1.9c-0.2,0-0.7,0.1-0.8,0.2
				c-0.4,0.5-0.6,1.4-0.9,2.7c-0.7,2.7,1.4,4,1.4,4s-7.1,3.5-7.1,0c0,0,0.6-6.5,0.5-6.5c-0.6-0.6-2.7-0.8-1.4-5.4
				c1.3-4.3,4.4-4,5.2-3.8C204.9,114.5,207.3,114.6,207.1,120z"/>
		</g>
		<g>
			<path d="M202.3,113.8c0,0,1.4,6.2,3,6.8c1.9,0.7,1.7-2.2,1.9-0.3C207.2,120.3,210.5,111.2,202.3,113.8z"/>
		</g>
		<g>
			<g>
				<path class="st23" d="M208.2,121.8c0,0-0.7-1.5-1.6,0.5"/>
			</g>
			<g>
				<path class="st24" d="M202.9,120.1c-0.6,0-1.1,0.5-1.1,1c0,0.6,0.5,1.1,1,1.1c0.6,0,1.1-0.5,1.1-1
					C204,120.6,203.5,120.2,202.9,120.1z"/>
			</g>
			<g>
				<path class="st24" d="M198.5,120.5c0.5-0.1,0.9-0.5,0.9-1c0-0.4-0.2-0.8-0.5-0.9C198.8,118.6,198.4,119.8,198.5,120.5z"/>
			</g>
			<g>
				<polygon class="st23" points="200.9,118.3 200.4,119.9 199.9,119.7 				"/>
			</g>
			<g>
				<path d="M202.8,118.4c0-0.2,0.1-0.4,0-0.5c-0.1-0.1-0.3-0.3-0.4-0.3c-0.2-0.2-0.5-0.1-0.5,0.1c0.1,0.1,0.4,0.1,0.7,0.4
					C202.7,118.2,202.8,118.3,202.8,118.4z"/>
			</g>
			<g>
				<path d="M199.6,117.1c-0.1,0,0.1-0.2,0.3-0.3c0.2-0.1,0.4,0,0.5,0c0.3,0.1,0.4,0.3,0.2,0.4C200.4,117.4,200.1,116.9,199.6,117.1
					z"/>
			</g>
			<g>
				<path d="M201.8,119.2c-0.1,0.2-0.2,0.3-0.3,0.3c-0.1,0-0.1-0.2,0-0.4c0.1-0.2,0.2-0.3,0.3-0.3
					C201.8,118.8,201.9,119,201.8,119.2z"/>
			</g>
			<g>
				<path d="M200.3,118.5c-0.1,0.2-0.2,0.3-0.3,0.3c-0.1,0-0.1-0.2,0-0.4c0.1-0.2,0.2-0.3,0.3-0.3
					C200.3,118.1,200.3,118.3,200.3,118.5z"/>
			</g>
			<g class="st2">
				<path d="M200.2,123.7c0,0,2,0.4,3.1,0.3C204.3,123.9,199.9,126.6,200.2,123.7z"/>
			</g>
			<g>
				<g>
					<path class="st7" d="M199.5,120c0,0-0.2,0.8,0.1,0.9c0.6,0.2,1.2-0.2,1.2-0.2L199.5,120z"/>
				</g>
			</g>
		</g>
	</g>
	<g class="st2">
		<ellipse cx="211.7" cy="226.7" rx="21.3" ry="1.2"/>
	</g>
	<g>
		<g>
			<path class="st25" d="M201.3,217.9l-0.7,5.3c0,0-1.2,3.5-2.3,2.1c-1.1-1.4-2.2-2.1-2.2-2.1l-0.4-5.5L201.3,217.9z"/>
		</g>
		<g>
			<path class="st24" d="M198.4,218.1l-0.2,7.2c0,0,3.5,0.5,2.2-1.8l0.8-5L198.4,218.1z"/>
		</g>
		<g>
			<path class="st25" d="M218.9,217.5l1.6,5.3c0,0,1.2,1.1,1.7,1.1c0.8-0.1,1.2-1.5,1.2-1.5l0.1-4.9H218.9z"/>
		</g>
		<g>
			<path class="st24" d="M221.3,216.1l1.1,8.7c0,0,2.3,0.6,1.1-1.7l0.3-6.7L221.3,216.1z"/>
		</g>
		<g>
			<path d="M195.7,223.3l-4.4,3.6c-0.2,0.2-0.1,0.4,0.3,0.5l6.5,0.1c0.2,0,0.3-0.1,0.3-0.2l0.5-1c0.1-0.3,0.4-0.3,0.4,0l0.2,1
				c0,0.2,1.5,0.1,1.6,0c0.1-0.9-0.1-3.7-0.2-4.5c0-0.1-0.1-0.2-0.3-0.2l0,0c-0.1,0-0.3,0-0.4,0.1c-0.4,0.4-1.8,1.7-2.6,1.4
				c-0.5-0.2-1.2-0.5-1.4-0.7C196.1,223.1,195.9,223.1,195.7,223.3z"/>
		</g>
		<g>
			<path d="M223.6,222.2l2.5,4.2c0.3,0.4,0.1,0.9-0.4,1.2c-0.8,0.5-1.4,1.4-1.9,1.4c-0.9,0-2.3-0.9-3.1-1.3c-0.5-0.2-1-0.6-0.9-1
				l0.6-4.2c0-0.1,0.1-0.1,0.1,0l1,0.9c0.3,0.3,1.2,0.2,1.4-0.1c0.2-0.2,0.5-1,0.5-1C223.5,222.2,223.6,222.2,223.6,222.2z"/>
		</g>
	</g>
	<g>
		<g>
			<path class="st15" d="M210.3,148.3c2,3.6,3.1,6.2,4.3,10.7c1.3,5.3,8.9,49.8,9.5,59.4c-1.7,0.4-4.2,0.2-5.2,0.2
				c-3.3-9.6-13.2-40.5-14.7-46.5c-0.2-0.9-1.7-0.7-1.5,0.2c0.8,6.9-0.5,34.9-1.1,46.5c-0.9,0.4-5,0.4-6,0.2
				c-1.1-11.8-6.9-56.5,1.9-71C201.3,147.5,206.2,148.2,210.3,148.3z"/>
		</g>
		<g class="st2">
			<path class="st5" d="M210.5,160.2c-0.7,0-1.3-0.2-1.9-0.7c-2.8-2.3-2.9-9.7-2.9-10l0.2,0c0,0.1,0.1,7.6,2.9,9.8
				c0.7,0.6,1.4,0.8,2.3,0.6l0,0.2C210.9,160.2,210.7,160.2,210.5,160.2z"/>
		</g>
		<g class="st2">
			<path d="M197.4,149.8l17.8,12.2c0,0-1.3-6.1-3.5-12L197.4,149.8z"/>
		</g>
		<g class="st2">
			<path class="st5" d="M195.7,160.7c-0.2,0-0.4,0-0.6-0.1l0-0.2c0.9,0.2,1.6,0,2.2-0.6c2.5-2.3,2-9.7,2-9.8l0.2,0
				c0,0.3,0.5,7.6-2,9.9C197,160.5,196.4,160.7,195.7,160.7z"/>
		</g>
	</g>
	<g>
		<polygon class="st5" points="201.7,215.3 195,215.1 195,215 201.7,215.1 		"/>
	</g>
	<g>
		<polygon class="st5" points="223.7,215.3 217.7,215.1 217.7,215 223.7,215.1 		"/>
	</g>
	<g>
		<g>
			<path class="st22" d="M179.6,141.8c0,0,15.4,10.2,17.1,7.7c0,0,2-2.9-2.3-10.3c-0.3-0.8-0.5-1.3-0.5-1.4c0,0,4.6-6.1,5.3-8.2
				c0.1-0.2,0.4-0.7,0.3-0.7c-4.2,0.5-4.3,10.3-8.3,13.9c-0.2,0.1-10.1-4.2-10.1-4.2s-5.8-3.7-6-3.3c-0.2,0.6,2.1,2.3,2.1,2.3
				s0,0.3-0.2,0.5c-0.2,0.2-0.3,0.5-0.3,0.9c0,0.4-0.3,0.8-0.2,1.1C176.4,140.3,178.5,141.5,179.6,141.8z"/>
		</g>
		<g>
			<path class="st22" d="M180.8,138.5c0,0-1.6-1.9-1.9-1.7c-0.3,0.2-1.5,1.3-1.3,1.9c0.2,0.5,1.3-0.4,1.3-0.4s0.2,1.3,0.9,1.3
				C180.6,139.5,180.8,138.5,180.8,138.5z"/>
		</g>
		<g>
			<g>
				<g>
					<path class="st24" d="M178.6,138.3c0,0,0.2,0.5-0.2,0.8c0,0,0.1,0.6-0.5,0.7c0,0,0.3,0.2-0.1,0.4
						C177.8,140.3,180,141.4,178.6,138.3z"/>
				</g>
			</g>
			<g>
				<g>
					<path class="st23" d="M178.5,137.2c-0.2,0.3-0.4,0.6-0.6,0.8c-0.1,0.1-0.2,0.3-0.3,0.4c-0.1,0.1-0.1,0.2,0,0.2
						c0.3,0.1,0.6,0,0.9-0.1c0.1,0,0.2-0.1,0.3,0c0.1,0,0.1,0.1,0.1,0.2l0,0.1l0,0.5l0,0l-0.1-0.5c0-0.1,0-0.2-0.1-0.2
						c-0.1,0-0.2,0-0.2,0.1c-0.3,0.1-0.7,0.2-1,0.1c-0.1,0-0.2-0.1-0.2-0.2c0-0.1,0-0.2,0.1-0.3c0.1-0.2,0.2-0.3,0.3-0.4
						L178.5,137.2L178.5,137.2z"/>
				</g>
			</g>
			<g>
				<g>
					<path class="st23" d="M177.1,137.5c0.1,0,0.2,0,0.2,0c0.1,0,0.1,0,0.2,0.1c0.1,0,0.1,0.1,0.2,0.1c0,0,0.1,0.1,0.1,0.2l0,0
						C177.5,137.7,177.3,137.6,177.1,137.5L177.1,137.5z"/>
				</g>
			</g>
			<g>
				<g>
					<path class="st23" d="M176.7,138.5c0.2,0,0.4,0.1,0.5,0.1c0.2,0.1,0.3,0.1,0.5,0.2c0.2,0.1,0.3,0.1,0.5,0.2c0.1,0,0.2,0,0.2,0
						c0.1,0,0.2,0,0.2-0.1l0,0c-0.1,0.2-0.3,0.3-0.5,0.2c-0.2,0-0.4-0.1-0.5-0.1C177.4,138.9,177.1,138.7,176.7,138.5L176.7,138.5z"
						/>
				</g>
			</g>
			<g>
				<g>
					<path class="st23" d="M178.4,139.1c0.1,0.2,0.2,0.4,0,0.7c-0.1,0.1-0.2,0.2-0.4,0.2c-0.1,0-0.2,0-0.4,0
						c-0.2-0.1-0.4-0.2-0.6-0.3c-0.2-0.1-0.4-0.2-0.5-0.4l0,0c0.2,0.1,0.4,0.2,0.6,0.3c0.2,0.1,0.4,0.2,0.6,0.2
						c0.2,0.1,0.4,0.1,0.6-0.1C178.5,139.6,178.4,139.3,178.4,139.1L178.4,139.1z"/>
				</g>
			</g>
			<g>
				<g>
					<path class="st23" d="M177.9,139.8c0.1,0.1,0.1,0.2,0.1,0.4c0,0.1,0,0.1,0,0.2c-0.1,0.1-0.1,0.2-0.2,0.2
						c-0.1,0.1-0.3,0.1-0.4,0.1c-0.1,0-0.1,0-0.2,0c-0.1,0-0.1-0.1-0.2-0.1l0,0c0.1,0.1,0.2,0.1,0.4,0.1c0.1,0,0.3,0,0.4-0.1
						c0.1,0,0.1-0.1,0.1-0.1c0-0.1,0-0.1,0-0.2C177.9,140,177.9,139.9,177.9,139.8L177.9,139.8z"/>
				</g>
			</g>
		</g>
	</g>
	<g>
		<path class="st0" d="M199.5,128.3c0,0-2.1,0.3-3.5,3c-1.1,2.2-5.4,11.2-5.4,11.2l-8.4-3.6l-0.8,5.3c0,0,13,7.8,15.2,6.1
			C198.9,148.5,200.5,131,199.5,128.3z"/>
	</g>
	<g>
		<g>
			<path class="st0" d="M199.8,128.1c0.1,0.3-4.8,10-4.6,12.8c0.1,2.8,2.1,7.5,1.9,7.9c0,0,2.2,1.7,14.1-0.2
				c3.7-3.2,0.4-14.2-0.8-17.6c0,0-3.3-0.5-4.6-2.1C205.8,128.9,200.5,133,199.8,128.1z"/>
		</g>
	</g>
	<g class="st2">
		<g>
			<path d="M211.4,134c1.3,4.7,2.8,12.1-0.1,14.7c-7.6,1.2-11.2,0.9-12.9,0.6C202.8,144.3,207.2,139.2,211.4,134z"/>
		</g>
	</g>
	<g>
		<g>
			<path class="st26" d="M201.8,150.6l-7.2-8.9l-7.7,0.1l5.9,8.2l3.5,0.5C196.4,150.5,201.8,150.6,201.8,150.6z"/>
		</g>
		<g class="st2">
			<polygon class="st27" points="197.6,145.5 197.6,146.8 199.4,147.4 			"/>
		</g>
	</g>
	<g>
		<path class="st22" d="M205.1,152.4c-6-1.3-9.7-2.7-10.4-2.9c-0.4-0.1-1.5-0.7-1.5-0.8c0-0.4,2.3,0.6,2.2,0.5
			c-0.1-0.1-2.8-1-2.8-1.3c0-0.5,3,0.6,3.1,0.6c0.8,0.2-2.9-0.9-3-1.2c-0.1-0.3,1.7,0.1,1.7,0.1c0,0,1.5,0.4,1.5,0.3
			c0.1-0.1-2.9-1.9-2.6-2c0.3-0.2,2.5,0.9,3.1,1.1c0.5,0.2,1.3,0.3,1.5,0.2c0.2-0.1,0-1-0.4-1.3c0,0,1.3,0.6,1.9,1.3
			c0.3,0.4,0.6,0.9,0.6,0.9l5,1L205.1,152.4z"/>
	</g>
	<g>
		<path class="st0" d="M208,134.6c0,0-0.7-4.6,1.6-4.2c4,0.6,8.6,9.7,6.8,21.9c-0.6,3.9-16.5,0.1-16.5,0.1l1-5.8l8.3,1.4L208,134.6z
			"/>
	</g>
</g>
<g>
	<g>
		<g>
			<path class="st19" d="M233.5,131.8c0,0.8,0.6,1.4,1.4,1.4s1.4-0.6,1.4-1.4s-0.6-1.4-1.4-1.4S233.5,131,233.5,131.8z"/>
		</g>
		<g>
			<circle class="st19" cx="238.5" cy="125.6" r="2.8"/>
		</g>
		<g>
			<path class="st13" d="M236.2,127.3l-1.5-0.5c-0.1-0.1-0.1-0.3,0-0.3l3.4-1c0.1,0,0.2,0.1,0.2,0.2l-1.1,3.4c0,0.1-0.3,0.1-0.3,0
				l-0.5-1.6C236.3,127.4,236.2,127.3,236.2,127.3z"/>
		</g>
	</g>
	<g>
		<g>
			<g>
				<path class="st10" d="M224.7,139.2c-0.2,0.1,2,3.2,4.9,4.9c0,0,13.2,12.3,15.6,11.4c2.4-0.9,13.2-24.6,7.3-25.6
					c0,0-1.5-1.1-2.6,0.3c-1.1,1.4-4.3,3.2-9.4,14.9c0,0-7.4-3.8-8.2-4.2c0,0-1.7-4.1-2-3.4c-0.3,0.7,0.4,2.5,0.4,2.5
					s-4.2-3.2-4.8-2.9C225.3,137.2,224.7,139.2,224.7,139.2z"/>
			</g>
			<g>
				<path class="st14" d="M242.7,140.8c3.6-6.9,6.2-9.5,7.1-10.7c1.1-1.4,2.6-0.3,2.6-0.3c4,0.7,0.4,11.6-3.1,18.9
					C247.3,146.1,245.1,143.4,242.7,140.8z"/>
			</g>
			<g>
				<path class="st28" d="M245.7,131.5c0,0,2.3-6.5,6.8-3.8c4.5,2.7,1.3,16-1.2,18.7l-10-5.5L245.7,131.5z"/>
			</g>
			<g>
				<path class="st29" d="M251.2,146.4c1.6-0.3,4.3-10.6,3.3-12.4c0,0-5-2.9-5.3-2.6C246,134.7,251.2,146.4,251.2,146.4z"/>
			</g>
		</g>
		<g>
			<g>
				<g class="st2">
					<path d="M233.1,226.4c0-0.8,11.3-1.5,25.3-1.5c14,0,25.3,0.7,25.3,1.5c0,0.8-11.3,1.5-25.3,1.5
						C244.4,227.8,233.1,227.2,233.1,226.4z"/>
				</g>
				<g>
					<g>
						<polygon class="st10" points="245.3,222.2 245.3,217.4 250,217.7 249.9,222.3 247.7,226.1 243.8,223.1 						"/>
					</g>
					<g>
						<path class="st14" d="M245.7,217.4l3.6,7.6c0,0-0.7-1.2,0.7-2.4l0-5.1H245.7z"/>
					</g>
					<g>
						<g>
							<path d="M244.5,221.8c0,0,1.2,1.4,2.8,2.6c0.9,0.7,2.3-2.3,2.8-2.7c0.1-0.1,0.2,0,0.2,0.1l0.5,5h-13.7
								c-0.2,0-0.3-0.2-0.3-0.4C237.6,222.7,244.5,221.8,244.5,221.8z"/>
						</g>
					</g>
				</g>
				<g>
					<g>
						<polygon class="st10" points="267.3,222.8 265.8,218.2 270.8,218 271.9,222.9 270.1,226.1 266.1,223.1 						"/>
					</g>
					<g>
						<path class="st14" d="M266.9,218.2l4.1,5.7c0,0-0.1,0.2,1.3-1.1l-1.6-4.8L266.9,218.2z"/>
					</g>
					<g>
						<g>
							<path d="M266.6,222.4c0,0,1.2,1.4,2.8,2.6c0.9,0.7,2.3-2.3,2.8-2.7c0.1-0.1,0.2,0,0.2,0.1l0.5,5h-13.7
								c-0.2,0-0.3-0.2-0.3-0.4C259.7,223.4,266.6,222.4,266.6,222.4z"/>
						</g>
					</g>
				</g>
				<g>
					<g>
						<path class="st30" d="M245.2,162.2c0,0-1.8,21.1-1.9,26.9c-0.2,5.8,1.3,28.6,1.3,28.6l5.9,0c0,0,6.2-40.2,13.4-54.3
							L245.2,162.2z"/>
					</g>
					<g>
						<polygon class="st5" points="247.7,214.2 247.6,214.2 248.5,187.5 252.7,171.8 252.8,171.8 248.7,187.5 						"/>
					</g>
				</g>
				<g>
					<g>
						<path class="st15" d="M245.2,162.2c0,0,4.1,17.6,8.2,30c3.3,10.1,12.2,26,12.2,26l5.9-0.3l-6.3-25.4c-0.4-1.5-0.6-3-0.7-4.6
							c-0.4-5.8,0.8-17.7,1.3-25.2L245.2,162.2z"/>
					</g>
					<g>
						<path class="st5" d="M268.5,214.4l-0.2-0.1L268.5,214.4l-0.2,0c0-0.2-1-3.3-2.1-6.8c-2.4-7.4-6-18.7-6-20.7
							c0-3,0.1-13.5,0.1-13.6l0.2,0c0,0.1-0.1,10.6-0.1,13.6c0,2,3.6,13.2,6,20.7C268,212.5,268.5,214.2,268.5,214.4z"/>
					</g>
				</g>
				<g>
					<g>
						<path class="st1" d="M261.2,125.6c0,0,9.2,0.9,9.8,8.6c0.6,7.6-3.3,39.3-3.3,39.3l-25.1-1.6l2.4-35.9c0.1-1.9,0.7-3.8,1.7-5.5
							c1-1.5,2.1-3.2,2.7-3.3l10.3-2.7L261.2,125.6z"/>
					</g>
					<g>
						<path class="st1" d="M263.3,126.4c6.1,0.9,7.4,3.9,7.7,7.8c0.6,7.6-3.3,39-3.3,39l-24.9-1.3"/>
					</g>
					<g>
						<defs>
							<path id="SVGID_1_" d="M261.2,125.6c0,0,9.2,0.9,9.8,8.6c0.6,7.6-3.3,39.3-3.3,39.3l-25.1-1.6l2.4-35.9
								c0.1-1.9,0.7-3.8,1.7-5.5c1-1.5,2.1-3.2,2.7-3.3l10.3-2.7L261.2,125.6z"/>
						</defs>
						<clipPath id="SVGID_00000044136718492004914780000008610738329720184470_">
							<use xlink:href="#SVGID_1_"  style="overflow:visible;"/>
						</clipPath>
					</g>
				</g>
				<g>
					<g>
						<path class="st10" d="M258.3,118.6l2.7,7.2l-2,1c-3.1,1.1-5.9,0.4-6.3-0.9l0,0l0.4-4.3l4.3-3.9c0,0,0.7,0.5,0.7,0.6
							C258.2,118.6,258.3,118.6,258.3,118.6z"/>
					</g>
					<g>
						<path class="st14" d="M257.4,117.8l-4.3,3.9l-0.1,1.5c0,0,3.6,0.9,4.9-4.9"/>
					</g>
				</g>
				<g>
					<g>
						<g class="st2">
							<path d="M249.8,154.5l-8.5-15.3c-0.5-0.8-1.2-1.4-2.1-1.6l-19.1-1.3c-0.3-0.1-0.6,0.3-0.4,0.6l8.1,14.5
								c0.4,0.8,1.2,1.3,2,1.6l19.6,2.1C249.7,155.1,250,154.8,249.8,154.5z"/>
						</g>
						<g>
							<path class="st31" d="M249.1,155.6l-7.6-14.7c-0.5-0.8-1.7-1.6-2.6-1.8l-20.3-1.3c-0.3-0.1-0.6,0.3-0.4,0.6l8.1,14.5
								c0.4,0.8,1.2,1.3,2,1.6l20.4,1.6C249.1,156.2,249.3,155.9,249.1,155.6z"/>
						</g>
						<g class="st2">
							<polygon points="244.6,145 240.7,146.3 245.9,147.3 							"/>
						</g>
						<g>
							<polygon class="st7" points="245.4,152.4 227.2,151.4 228.2,153.2 246.6,154.4 							"/>
						</g>
					</g>
					<g>
						<path class="st10" d="M244.8,150.9c0.7,0.4,8.2,6.9,14.3,9.9c1.7,0.8,3.9-1.1,4.5-2.8l5.7-14.9l-9.2-4.6c0,0.1-1.7,9.4-3,12.6
							c-0.5,1.1-0.2,1-1.2,0.6l-8.3-4.2c0,0-0.7-0.6-0.9-1.1c-0.5-0.9-2.2-1.8-2.2-1.8l1,1.8c0.2,0.3,0,0.4-0.7,0.1l-4.1-1.7
							c0,0-0.9-0.2-0.4,0.2c0.5,0.4,2.1,1.4,2.2,1.4c1,0.6-2.7-1.2-2.7-0.9c0,0.4,2.2,1.6,2.1,1.6c0,0-2.4-1-2.4-0.7
							c0,0.3,2.1,1.3,2.1,1.4c0.1,0-1.7-0.9-1.7-0.7C239.9,147.2,244.4,150.7,244.8,150.9z"/>
					</g>
					<g>
						<path class="st14" d="M258.8,144.9c0.7-3.2,1.3-6.3,1.3-6.4l9.2,4.6l-3.6,9.4C263.4,150,261.1,147.4,258.8,144.9z"/>
					</g>
					<g>
						<path class="st14" d="M259.8,158.6c0.8-0.5,2.9-1.2,3.6-0.2c-0.8,1.6-2.8,3.2-4.3,2.5c-0.2-0.1-0.5-0.2-0.7-0.4
							C258.6,159.8,259,159.1,259.8,158.6z"/>
					</g>
					<g>
						<defs>
							<path id="SVGID_00000021828574964639684020000015060075219670484868_" d="M260.9,131.8c0,0,1-6.8,6-5
								c4.9,1.8,4.8,22.4,2.9,25.5l-14.1-6.8L260.9,131.8z"/>
						</defs>
						<use xlink:href="#SVGID_00000021828574964639684020000015060075219670484868_"  style="overflow:visible;fill:#E2D776;"/>
						<clipPath id="SVGID_00000118398515999246593280000013393017823600577960_">
							<use xlink:href="#SVGID_00000021828574964639684020000015060075219670484868_"  style="overflow:visible;"/>
						</clipPath>
					</g>
				</g>
				<g>
					<g>
						<path d="M249.8,111.2c-0.1,1.4,1.1,0.9,1.1,0.9c3,1.9,6.8,5.3,6.8,5.3s1.4-0.3,1.4-0.6c0.1-2.7-0.1-5.9-0.1-5.9
							s0.9-0.6,0.7-1.5c0,0-0.3-1.1-1.2-1c0,0,0.2-0.7-0.3-1c-0.5-0.4-1,0.1-1,0.1s0-1.3-1.4-1.6c-1.3-0.3-1.9,0.9-1.9,0.9
							s-0.2-0.7-0.6-0.6c-0.4,0-0.6,0.7-0.6,0.7s-0.1-1-1.3-0.9c-1.2,0.2-1.3,1.6-1.3,1.6s-0.1-0.5-0.6-0.4c-0.7,0.1-1.1,1-0.4,1.9
							c0,0-0.5,0.4-0.5,1.1C248.7,110.8,249.8,111.2,249.8,111.2z"/>
					</g>
					<g>
						<path class="st10" d="M257.8,116.3c0.1,0.1,0.2,0.2,0.3,0.1c0.4-0.3,1-0.8,1.3,0.6c0.3,1.9-1.6,1.5-1.8,1.8
							c-0.3,0.5-1.3,2.2-2.8,2.9c-0.9,0.4-2.3,0.5-3.3-0.5c-1-1-1.6,0.2-1.1-10.1c0,0,0.2,0.8,1.2,0.6c0.7-0.1,1.2-0.7,2-0.9
							c0.6-0.2,2.3-0.6,3,1.5C257,113.3,257.5,115.5,257.8,116.3z"/>
					</g>
					<g>
						<g>
							<path class="st5" d="M250.6,118c0,0,0.6,0.3,2.1,0.2c0,0-0.8,1.1-1.4,0.9C250.7,118.8,250.6,118,250.6,118z"/>
						</g>
						<g>
							<path class="st14" d="M259.1,116.8l-1,0.8C258.1,117.6,258.5,115.7,259.1,116.8z"/>
						</g>
						<g>
							<path class="st32" d="M251.8,115.8c0,0.2,0.1,0.4,0.2,0.4c0.1,0,0.2-0.2,0.2-0.4c0-0.2-0.1-0.4-0.2-0.4
								C251.9,115.4,251.8,115.6,251.8,115.8z"/>
						</g>
						<g>
							<path class="st32" d="M250.5,115.6c0,0.2,0.1,0.4,0.2,0.4c0.1,0,0.2-0.2,0.2-0.4c0-0.2-0.1-0.4-0.2-0.4
								C250.6,115.2,250.5,115.4,250.5,115.6z"/>
						</g>
						<g>
							<path class="st32" d="M253.5,114.1c0.3,0.2-0.2-0.7-0.6-0.8c-0.4-0.1-0.8,0.1-0.9,0.5C252,113.7,252.8,113.6,253.5,114.1z"/>
						</g>
						<g>
							<path class="st32" d="M250.4,114c0.4-0.1,0.7,0,0.7,0c-0.1-0.3-0.4-0.6-0.7-0.6"/>
						</g>
						<g>
							<path class="st14" d="M251.1,115.6l-0.6,1.7c0,0,0,0.1,0,0.1l0.7,0.1c0,0,0,0,0,0L251.1,115.6
								C251.2,115.6,251.1,115.5,251.1,115.6z"/>
						</g>
					</g>
				</g>
			</g>
		</g>
	</g>
</g>
</svg>
